
<svg width="3594" height="2020" viewBox="0 0 3594 2020" fill="none" xmlns="http://www.w3.org/2000/svg">
<path d="M24.4236 787.909C25.433 791.243 25.0901 794.839 23.469 797.923C22.635 799.468 21.5026 800.833 20.137 801.938C18.7714 803.043 17.1998 803.866 15.5134 804.36L0.2389 809.049V801.102L13.2856 797.128C14.0116 796.913 14.6878 796.557 15.275 796.079C15.8622 795.602 16.3491 795.013 16.707 794.346C17.3547 792.983 17.4956 791.433 17.1046 789.975L0.2389 735.217V709.786L24.4236 787.909ZM669.698 1087.85L937.642 1005.51C940.986 1004.49 944.597 1004.84 947.684 1006.48C950.771 1008.12 953.082 1010.91 954.109 1014.25L997.468 1155.16C998.489 1158.49 998.15 1162.09 996.526 1165.17C994.901 1168.25 992.122 1170.57 988.795 1171.61L939.71 1186.71L984.658 1332.55C985.173 1334.2 985.355 1335.94 985.194 1337.66C985.032 1339.39 984.53 1341.07 983.716 1342.59C982.903 1344.12 981.794 1345.48 980.453 1346.58C979.113 1347.68 977.568 1348.5 975.907 1349L835.334 1392.23C831.989 1393.23 828.387 1392.87 825.306 1391.23C822.224 1389.6 819.911 1386.82 818.865 1383.49L774.234 1237.65L721.091 1253.95C717.757 1254.97 714.155 1254.63 711.07 1253.01C707.985 1251.38 705.668 1248.61 704.623 1245.28L660.947 1104.69C660.43 1103.05 660.248 1101.31 660.412 1099.59C660.576 1097.87 661.083 1096.2 661.902 1094.68C662.669 1093.07 663.756 1091.64 665.096 1090.46C666.437 1089.29 668.002 1088.4 669.698 1087.85V1087.85ZM668.505 1097.78C668.209 1098.47 668.057 1099.21 668.057 1099.96C668.057 1100.72 668.209 1101.46 668.505 1102.15L711.863 1243.06C712.321 1244.5 713.33 1245.7 714.672 1246.4C716.013 1247.1 717.578 1247.24 719.023 1246.79L779.246 1228.28L826.423 1381.34C826.635 1382.06 826.991 1382.73 827.47 1383.3C827.949 1383.87 828.54 1384.34 829.208 1384.68C829.858 1385.04 830.575 1385.26 831.314 1385.33C832.053 1385.4 832.798 1385.31 833.503 1385.08L974.078 1341.85C974.801 1341.65 975.476 1341.31 976.064 1340.84C976.652 1340.38 977.14 1339.8 977.499 1339.14C978.053 1337.74 978.053 1336.18 977.499 1334.77L930.322 1181.7L986.568 1164.46C987.285 1164.25 987.954 1163.9 988.533 1163.43C989.112 1162.96 989.591 1162.37 989.939 1161.71C990.288 1161.05 990.501 1160.33 990.564 1159.59C990.627 1158.84 990.54 1158.09 990.308 1157.39L946.949 1016.48C946.746 1015.76 946.394 1015.09 945.914 1014.51C945.434 1013.94 944.838 1013.47 944.165 1013.14C942.848 1012.43 941.309 1012.26 939.869 1012.66L671.847 1095C670.414 1095.46 669.216 1096.45 668.505 1097.78V1097.78ZM2355.08 1418.22L2306 1433.24L2350.94 1579.16C2351.97 1582.49 2351.63 1586.08 2350 1589.17C2348.38 1592.25 2345.6 1594.56 2342.27 1595.61L2201.62 1638.84C2200.38 1639.22 2199.09 1639.41 2197.8 1639.4C2194.98 1639.39 2192.23 1638.49 2189.95 1636.81C2187.68 1635.14 2186 1632.79 2185.15 1630.1L2140.28 1484.18L2086.9 1500.56C2083.56 1501.55 2079.95 1501.19 2076.87 1499.56C2073.79 1497.92 2071.48 1495.14 2070.43 1491.81L2026.84 1351.06C2025.82 1347.72 2026.17 1344.12 2027.81 1341.03C2029.45 1337.95 2032.25 1335.64 2035.59 1334.61L2303.53 1252.28C2305.19 1251.76 2306.93 1251.58 2308.65 1251.74C2310.38 1251.9 2312.06 1252.41 2313.59 1253.22C2315.12 1254.03 2316.47 1255.14 2317.57 1256.48C2318.67 1257.82 2319.5 1259.36 2320 1261.02L2363.44 1401.93C2364.38 1405.25 2364 1408.81 2362.37 1411.85C2360.73 1414.89 2357.98 1417.17 2354.68 1418.22H2355.08ZM2356.67 1403.91L2313.24 1263.01C2313.02 1262.3 2312.66 1261.64 2312.19 1261.06C2311.71 1260.49 2311.13 1260.02 2310.47 1259.67C2309.81 1259.32 2309.09 1259.11 2308.35 1259.04C2307.61 1258.97 2306.87 1259.05 2306.16 1259.27L2038.21 1341.61C2037.49 1341.81 2036.82 1342.16 2036.25 1342.64C2035.67 1343.12 2035.2 1343.72 2034.87 1344.39C2034.17 1345.7 2033.99 1347.24 2034.39 1348.68L2077.83 1489.59C2078.04 1490.31 2078.39 1490.97 2078.86 1491.56C2079.33 1492.14 2079.91 1492.62 2080.57 1492.98C2081.23 1493.33 2081.95 1493.55 2082.7 1493.62C2083.44 1493.7 2084.2 1493.62 2084.91 1493.4L2145.21 1474.89L2192.31 1627.87C2192.51 1628.59 2192.87 1629.26 2193.35 1629.84C2193.83 1630.41 2194.42 1630.88 2195.1 1631.21C2196.44 1631.92 2198.01 1632.09 2199.47 1631.69L2340.05 1588.45C2340.76 1588.24 2341.42 1587.88 2341.99 1587.41C2342.57 1586.93 2343.04 1586.35 2343.39 1585.69C2343.73 1585.04 2343.95 1584.32 2344.02 1583.58C2344.09 1582.84 2344.01 1582.09 2343.79 1581.38L2296.69 1428.31L2352.86 1411.07C2354.23 1410.53 2355.34 1409.49 2355.98 1408.17C2356.61 1406.84 2356.72 1405.32 2356.28 1403.91H2356.67ZM3328.21 1785.39L3279.12 1800.49L3324.07 1946.33C3325.07 1949.69 3324.73 1953.31 3323.11 1956.42C3322.28 1957.95 3321.14 1959.31 3319.77 1960.4C3318.41 1961.49 3316.84 1962.3 3315.16 1962.78L3174.58 2006.01C3171.24 2007.01 3167.64 2006.65 3164.56 2005.01C3161.48 2003.38 3159.16 2000.6 3158.12 1997.27L3113.17 1851.75L3060.02 1867.65C3056.68 1868.66 3053.07 1868.32 3049.98 1866.68C3046.89 1865.04 3044.58 1862.24 3043.56 1858.91L3000.2 1718C2999.18 1714.66 2999.53 1711.05 3001.17 1707.96C3002.81 1704.88 3005.61 1702.57 3008.95 1701.55L3276.89 1619.21C3280.24 1618.19 3283.85 1618.54 3286.93 1620.18C3290.02 1621.82 3292.33 1624.62 3293.36 1627.95L3336.72 1768.86C3337.25 1770.53 3337.44 1772.28 3337.28 1774.02C3337.13 1775.76 3336.63 1777.45 3335.82 1778.99C3335 1780.54 3333.89 1781.91 3332.54 1783.02C3331.19 1784.13 3329.64 1784.96 3327.97 1785.47L3328.21 1785.39ZM3329.72 1771.17L3286.36 1630.26C3286.14 1629.53 3285.79 1628.86 3285.31 1628.27C3284.83 1627.68 3284.24 1627.2 3283.58 1626.84C3282.16 1626.32 3280.61 1626.32 3279.2 1626.84L3010.86 1708.7C3009.42 1709.16 3008.21 1710.16 3007.51 1711.5C3006.81 1712.85 3006.67 1714.41 3007.12 1715.85L3050.48 1856.76C3050.93 1858.2 3051.94 1859.4 3053.29 1860.1C3054.63 1860.8 3056.19 1860.94 3057.64 1860.5L3117.86 1841.98L3165.04 1995.05C3165.26 1995.76 3165.61 1996.42 3166.09 1996.99C3166.56 1997.56 3167.14 1998.04 3167.8 1998.38C3168.46 1998.73 3169.18 1998.94 3169.92 1999.01C3170.66 1999.08 3171.41 1999 3172.12 1998.78L3312.69 1955.55C3313.42 1955.34 3314.11 1954.99 3314.69 1954.51C3315.28 1954.04 3315.77 1953.44 3316.11 1952.76C3316.67 1951.39 3316.67 1949.85 3316.11 1948.47L3268.94 1795.41L3325.18 1778.16C3325.91 1777.98 3326.6 1777.66 3327.2 1777.22C3327.81 1776.77 3328.32 1776.21 3328.7 1775.57C3329.09 1774.93 3329.34 1774.21 3329.45 1773.47C3329.55 1772.73 3329.51 1771.97 3329.32 1771.25L3329.72 1771.17ZM277.251 1208.49L545.194 1126.15C548.538 1125.13 552.149 1125.48 555.236 1127.12C558.323 1128.76 560.635 1131.56 561.662 1134.89L605.02 1275.8C606.041 1279.13 605.702 1282.73 604.078 1285.81C602.453 1288.89 599.675 1291.21 596.348 1292.25L547.262 1307.35L592.211 1453.19C592.726 1454.84 592.908 1456.58 592.746 1458.31C592.585 1460.03 592.082 1461.71 591.268 1463.24C590.455 1464.77 589.346 1466.12 588.005 1467.22C586.665 1468.32 585.121 1469.14 583.46 1469.64L442.885 1512.87C441.621 1513.25 440.307 1513.44 438.987 1513.43C436.851 1513.45 434.744 1512.93 432.861 1511.92C431.309 1511.09 429.939 1509.97 428.832 1508.6C427.725 1507.23 426.904 1505.66 426.418 1503.97L381.469 1358.14L328.325 1374.03C326.675 1374.55 324.939 1374.73 323.218 1374.56C321.497 1374.4 319.826 1373.9 318.301 1373.09C316.776 1372.27 315.429 1371.16 314.336 1369.83C313.244 1368.49 312.428 1366.95 311.937 1365.29L268.5 1224.38C267.651 1221.18 268.037 1217.78 269.585 1214.84C271.133 1211.91 273.727 1209.67 276.853 1208.57L277.251 1208.49ZM275.66 1222.79L319.018 1363.7C319.478 1365.13 320.476 1366.33 321.802 1367.04C322.494 1367.33 323.238 1367.49 323.99 1367.49C324.742 1367.49 325.487 1367.33 326.178 1367.04L386.481 1348.52L433.18 1502.07C433.392 1502.78 433.748 1503.45 434.227 1504.02C434.706 1504.6 435.297 1505.07 435.964 1505.4C436.642 1505.7 437.373 1505.85 438.112 1505.85C438.851 1505.85 439.582 1505.7 440.26 1505.4L580.914 1462.33C581.626 1462.11 582.287 1461.75 582.86 1461.28C583.434 1460.81 583.908 1460.23 584.256 1459.57C584.603 1458.91 584.817 1458.19 584.885 1457.45C584.953 1456.71 584.875 1455.96 584.654 1455.26L537.557 1302.19L593.723 1284.94C595.156 1284.48 596.353 1283.48 597.064 1282.16C597.357 1281.48 597.509 1280.75 597.509 1280.01C597.509 1279.28 597.357 1278.55 597.064 1277.87L553.707 1136.96C553.497 1136.24 553.147 1135.57 552.676 1134.99C552.206 1134.41 551.624 1133.93 550.965 1133.57C550.306 1133.22 549.583 1133 548.838 1132.92C548.094 1132.85 547.342 1132.93 546.626 1133.15L279.001 1215.96C277.623 1216.43 276.474 1217.41 275.781 1218.69C275.088 1219.97 274.904 1221.46 275.262 1222.87L275.66 1222.79ZM1267.48 1849.13C1265.51 1849.72 1263.73 1850.83 1262.33 1852.34C1260.93 1853.85 1259.96 1855.7 1259.52 1857.71L1220.78 2019.36H1228.74L1267 1859.46C1267.16 1858.71 1267.53 1858.01 1268.07 1857.45C1268.6 1856.89 1269.28 1856.48 1270.02 1856.28C1270.47 1856.19 1270.93 1856.19 1271.38 1856.28C1272.5 1856.28 1273.58 1856.7 1274.4 1857.47L1452.45 2019.6H1463.58L1279.25 1851.75C1277.71 1850.3 1275.8 1849.28 1273.73 1848.82C1271.66 1848.36 1269.5 1848.47 1267.48 1849.13V1849.13ZM756.175 977.535C757.758 978.938 758.934 980.741 759.578 982.755C760.222 984.769 760.31 986.919 759.834 988.979C759.396 991.016 758.43 992.902 757.035 994.45C755.639 995.998 753.861 997.153 751.879 997.801L430.077 1096.75C428.922 1097.12 427.713 1097.31 426.498 1097.3C423.528 1097.27 420.683 1096.1 418.542 1094.04C416.994 1092.62 415.853 1090.81 415.238 1088.8C414.623 1086.78 414.555 1084.65 415.041 1082.6L492.051 760.967C492.529 758.966 493.51 757.12 494.902 755.604C496.295 754.088 498.052 752.952 500.007 752.304C502.021 751.683 504.165 751.605 506.219 752.08C508.273 752.554 510.165 753.564 511.701 755.006L756.175 977.535ZM751.163 983.098L506.53 760.57C505.717 759.853 504.67 759.458 503.586 759.457H502.235C501.489 759.688 500.817 760.111 500.286 760.683C499.756 761.254 499.385 761.955 499.211 762.716L422.201 1084.35C422 1085.11 422.011 1085.92 422.231 1086.68C422.452 1087.44 422.874 1088.12 423.454 1088.66C424.034 1089.2 424.749 1089.57 425.523 1089.73C426.297 1089.9 427.101 1089.85 427.849 1089.59L749.413 990.807C750.17 990.584 750.854 990.164 751.395 989.591C751.936 989.017 752.316 988.31 752.494 987.542C752.672 986.774 752.642 985.973 752.408 985.22C752.174 984.467 751.745 983.789 751.163 983.257V983.098ZM3345.79 447.123L3296.7 462.223L3341.65 608.058C3342.67 611.399 3342.32 615.007 3340.68 618.091C3339.04 621.175 3336.24 623.483 3332.9 624.51L3192.72 667.982C3191.46 668.361 3190.14 668.549 3188.82 668.538C3186.01 668.528 3183.27 667.621 3181.01 665.948C3178.75 664.275 3177.09 661.925 3176.25 659.24L3131.31 513.404L3078.16 529.299C3074.82 530.316 3071.21 529.967 3068.12 528.328C3065.03 526.689 3062.72 523.895 3061.69 520.557L3017.7 380.046C3016.68 376.706 3017.03 373.098 3018.67 370.014C3020.31 366.93 3023.11 364.622 3026.45 363.595L3294.39 281.26C3297.73 280.251 3301.33 280.594 3304.42 282.213C3305.97 283.047 3307.33 284.178 3308.44 285.542C3309.54 286.906 3310.37 288.476 3310.86 290.161L3354.22 431.069C3354.74 432.717 3354.92 434.452 3354.76 436.172C3354.59 437.892 3354.09 439.562 3353.27 441.083C3351.69 444.069 3349 446.322 3345.79 447.361V447.123ZM3346.9 437.188C3347.19 436.511 3347.35 435.781 3347.35 435.043C3347.35 434.305 3347.19 433.574 3346.9 432.897L3304.1 292.227C3303.89 291.502 3303.53 290.827 3303.05 290.24C3302.57 289.653 3301.98 289.167 3301.32 288.81C3299.93 288.299 3298.41 288.299 3297.02 288.81L3028.84 370.748C3027.4 371.205 3026.19 372.214 3025.49 373.554C3024.79 374.894 3024.65 376.457 3025.1 377.901L3068.46 518.809C3068.91 520.25 3069.92 521.452 3071.27 522.152C3072.61 522.852 3074.17 522.993 3075.62 522.544L3135.92 504.026L3183.02 657.094C3183.23 657.805 3183.59 658.465 3184.06 659.038C3184.54 659.611 3185.12 660.084 3185.78 660.432C3186.44 660.779 3187.16 660.992 3187.9 661.061C3188.64 661.129 3189.39 661.05 3190.1 660.829L3330.75 617.595C3332.18 617.17 3333.38 616.199 3334.09 614.893C3334.65 613.489 3334.65 611.927 3334.09 610.522L3287 457.454L3343.16 440.209C3343.97 439.992 3344.73 439.603 3345.37 439.068C3346.02 438.533 3346.54 437.865 3346.9 437.109V437.188ZM3533.22 1055.82L3484.13 1070.92L3529.08 1216.75C3529.6 1218.41 3529.78 1220.15 3529.62 1221.87C3529.46 1223.6 3528.95 1225.27 3528.14 1226.8C3527.33 1228.33 3526.22 1229.68 3524.88 1230.78C3523.54 1231.88 3521.99 1232.7 3520.33 1233.2L3379.76 1276.44C3376.41 1277.43 3372.81 1277.07 3369.73 1275.44C3366.65 1273.8 3364.33 1271.02 3363.29 1267.7L3318.34 1121.86L3265.2 1137.76C3261.86 1138.78 3258.26 1138.44 3255.18 1136.81C3252.09 1135.19 3249.77 1132.42 3248.73 1129.09L3205.37 988.105C3204.86 986.456 3204.68 984.722 3204.84 983.003C3205 981.284 3205.51 979.614 3206.32 978.091C3207.13 976.567 3208.24 975.221 3209.58 974.13C3210.92 973.038 3212.47 972.224 3214.12 971.733L3482.07 890.113C3485.41 889.118 3489.01 889.477 3492.09 891.113C3495.17 892.748 3497.49 895.529 3498.53 898.855L3541.89 1039.76C3542.86 1043.07 3542.5 1046.63 3540.88 1049.68C3539.26 1052.72 3536.51 1055.01 3533.22 1056.06V1055.82ZM3534.33 1045.88C3534.63 1045.21 3534.78 1044.47 3534.78 1043.74C3534.78 1043 3534.63 1042.27 3534.33 1041.59L3491.37 900.921C3490.92 899.478 3489.91 898.27 3488.57 897.558C3487.23 896.845 3485.67 896.683 3484.21 897.107L3216.59 979.442C3215.15 979.899 3213.94 980.908 3213.24 982.248C3212.54 983.588 3212.4 985.151 3212.85 986.595L3256.21 1127.5C3256.66 1128.94 3257.67 1130.15 3259.02 1130.85C3260.36 1131.55 3261.92 1131.69 3263.37 1131.24L3323.59 1112.72L3370.77 1265.79C3370.98 1266.5 3371.34 1267.17 3371.81 1267.74C3372.29 1268.32 3372.88 1268.79 3373.55 1269.13C3374.2 1269.48 3374.92 1269.7 3375.66 1269.77C3376.4 1269.84 3377.14 1269.76 3377.85 1269.52L3518.42 1226.29C3519.15 1226.09 3519.82 1225.75 3520.41 1225.29C3521 1224.82 3521.48 1224.24 3521.84 1223.59C3522.53 1222.23 3522.67 1220.67 3522.24 1219.22L3475.06 1066.15L3531.31 1048.9C3532.64 1048.4 3533.72 1047.4 3534.33 1046.12V1045.88ZM2747.21 1297.5L2698.13 1312.52L2743.07 1458.43C2743.59 1460.08 2743.77 1461.82 2743.61 1463.54C2743.45 1465.26 2742.94 1466.93 2742.12 1468.45C2741.29 1470 2740.16 1471.37 2738.8 1472.47C2737.43 1473.58 2735.85 1474.4 2734.16 1474.89L2594.07 1517.96C2592.8 1518.35 2591.49 1518.53 2590.17 1518.52C2587.36 1518.49 2584.63 1517.58 2582.37 1515.91C2580.11 1514.24 2578.44 1511.9 2577.6 1509.22L2532.41 1363.46L2479.35 1379.83C2477.69 1380.35 2475.95 1380.53 2474.22 1380.37C2472.5 1380.21 2470.82 1379.71 2469.29 1378.89C2467.76 1378.08 2466.4 1376.97 2465.3 1375.63C2464.2 1374.29 2463.38 1372.75 2462.88 1371.09L2419.44 1230.18C2418.43 1226.84 2418.77 1223.24 2420.42 1220.15C2422.06 1217.07 2424.85 1214.76 2428.19 1213.73L2696.14 1131.4C2697.79 1130.88 2699.52 1130.7 2701.25 1130.86C2702.97 1131.03 2704.64 1131.53 2706.16 1132.35C2707.71 1133.18 2709.08 1134.31 2710.19 1135.67C2711.3 1137.04 2712.12 1138.61 2712.61 1140.3L2755.96 1281.21C2756.49 1282.85 2756.68 1284.59 2756.53 1286.32C2756.38 1288.04 2755.89 1289.72 2755.08 1291.25C2754.27 1292.78 2753.17 1294.14 2751.83 1295.24C2750.49 1296.34 2748.95 1297.16 2747.29 1297.66L2747.21 1297.5ZM2748.8 1283.19L2705.37 1142.29C2705.15 1141.57 2704.8 1140.9 2704.32 1140.33C2703.84 1139.75 2703.25 1139.28 2702.58 1138.95C2701.9 1138.65 2701.17 1138.5 2700.43 1138.5C2699.69 1138.5 2698.96 1138.65 2698.28 1138.95L2430.34 1221.28C2428.9 1221.74 2427.69 1222.75 2426.97 1224.08C2426.26 1225.42 2426.1 1226.98 2426.52 1228.44L2469.96 1369.34C2470.42 1370.77 2471.42 1371.95 2472.74 1372.65C2474.06 1373.35 2475.61 1373.5 2477.04 1373.08L2537.34 1354.56L2584.44 1507.55C2584.88 1508.99 2585.87 1510.19 2587.2 1510.91C2588.52 1511.62 2590.08 1511.79 2591.52 1511.36L2732.18 1468.13C2732.89 1467.92 2733.56 1467.56 2734.13 1467.08C2734.71 1466.61 2735.18 1466.02 2735.52 1465.35C2735.81 1464.67 2735.96 1463.94 2735.96 1463.2C2735.96 1462.46 2735.81 1461.73 2735.52 1461.06L2688.42 1307.99L2744.59 1290.74C2745.41 1290.6 2746.2 1290.29 2746.89 1289.81C2747.58 1289.34 2748.16 1288.73 2748.59 1288.01C2749.02 1287.29 2749.29 1286.49 2749.38 1285.66C2749.47 1284.83 2749.38 1283.99 2749.12 1283.19H2748.8ZM363.33 1098.49C364.913 1099.9 366.089 1101.7 366.733 1103.71C367.377 1105.73 367.466 1107.88 366.99 1109.94C366.551 1111.98 365.585 1113.86 364.189 1115.41C362.794 1116.96 361.017 1118.11 359.035 1118.76L37.2319 1217.55C36.0767 1217.93 34.8675 1218.11 33.6518 1218.1C31.8537 1218.09 30.0815 1217.68 28.4669 1216.89C26.8524 1216.1 25.4372 1214.95 24.3279 1213.54C23.2187 1212.12 22.4438 1210.48 22.0608 1208.72C21.6778 1206.97 21.6971 1205.15 22.1167 1203.4L99.0467 882.165C99.5246 880.164 100.506 878.318 101.898 876.802C103.291 875.286 105.048 874.15 107.002 873.503C108.999 872.886 111.122 872.803 113.16 873.263C115.199 873.724 117.08 874.711 118.617 876.125L363.33 1098.49ZM358.318 1104.06L113.924 881.212C113.111 880.495 112.064 880.1 110.98 880.099H109.627C108.882 880.33 108.211 880.753 107.68 881.325C107.15 881.896 106.778 882.598 106.604 883.358L29.5949 1204.91C29.4021 1205.69 29.418 1206.5 29.6415 1207.27C29.8651 1208.04 30.2881 1208.73 30.8676 1209.28C31.4477 1209.81 32.1583 1210.18 32.9269 1210.35C33.6954 1210.52 34.4944 1210.48 35.243 1210.24L356.886 1111.45C357.646 1111.22 358.328 1110.79 358.861 1110.2C359.393 1109.61 359.756 1108.89 359.91 1108.11C360.03 1107.36 359.947 1106.58 359.667 1105.87C359.387 1105.16 358.921 1104.53 358.318 1104.06V1104.06ZM1381.56 1050.89L1332.56 1065.99L1377.5 1211.9C1378.5 1215.25 1378.14 1218.84 1376.5 1221.92C1374.87 1225 1372.08 1227.31 1368.75 1228.36L1228.18 1271.59C1226.91 1271.96 1225.6 1272.15 1224.28 1272.15C1221.48 1272.13 1218.75 1271.22 1216.5 1269.55C1214.26 1267.87 1212.61 1265.53 1211.79 1262.85L1166.84 1116.93L1113.7 1133.22C1110.36 1134.25 1106.76 1133.91 1103.68 1132.28C1100.59 1130.66 1098.27 1127.89 1097.23 1124.56L1053.87 983.654C1053.36 982.005 1053.17 980.271 1053.33 978.55C1053.48 976.83 1053.98 975.157 1054.79 973.628C1055.59 972.099 1056.69 970.745 1058.02 969.642C1059.35 968.539 1060.89 967.711 1062.54 967.203L1330.57 884.868C1333.9 883.847 1337.5 884.186 1340.59 885.809C1343.67 887.431 1345.99 890.207 1347.03 893.53L1390.39 1034.44C1390.9 1036.1 1391.08 1037.84 1390.92 1039.57C1390.75 1041.3 1390.24 1042.98 1389.42 1044.51C1388.6 1046.04 1387.48 1047.39 1386.13 1048.49C1384.78 1049.58 1383.23 1050.4 1381.56 1050.89V1050.89ZM1383.15 1036.66L1339.79 895.756C1339.33 894.325 1338.34 893.128 1337.01 892.418C1336.35 892.058 1335.62 891.838 1334.86 891.77C1334.11 891.701 1333.35 891.787 1332.63 892.02L1064.69 974.356C1063.97 974.564 1063.31 974.914 1062.73 975.386C1062.15 975.857 1061.67 976.44 1061.32 977.1C1060.97 977.76 1060.76 978.484 1060.7 979.227C1060.63 979.971 1060.72 980.72 1060.95 981.429L1104.31 1122.34C1104.77 1123.77 1105.77 1124.96 1107.09 1125.67C1107.76 1126.03 1108.49 1126.25 1109.24 1126.32C1109.99 1126.39 1110.75 1126.31 1111.47 1126.07L1171.69 1107.55L1218.87 1260.62C1219.08 1261.34 1219.43 1262.01 1219.9 1262.59C1220.37 1263.16 1220.96 1263.64 1221.62 1263.99C1222.28 1264.34 1223 1264.55 1223.75 1264.61C1224.49 1264.68 1225.24 1264.59 1225.95 1264.36L1366.52 1221.2C1367.25 1221 1367.92 1220.65 1368.49 1220.17C1369.07 1219.69 1369.54 1219.09 1369.87 1218.42C1370.58 1217.08 1370.75 1215.51 1370.34 1214.05L1323.17 1061.06L1379.41 1043.74C1380.12 1043.52 1380.79 1043.16 1381.36 1042.69C1381.93 1042.22 1382.41 1041.63 1382.75 1040.98C1383.1 1040.32 1383.32 1039.6 1383.38 1038.86C1383.45 1038.12 1383.37 1037.37 1383.15 1036.66V1036.66ZM1961.84 1538.86L1912.83 1553.96L1957.7 1699.88C1958.72 1703.21 1958.39 1706.81 1956.76 1709.89C1955.14 1712.97 1952.36 1715.29 1949.03 1716.33L1808.46 1759.48C1805.12 1760.5 1801.52 1760.16 1798.44 1758.54C1795.35 1756.92 1793.03 1754.14 1791.99 1750.82L1747.12 1604.91L1693.9 1621.28C1690.55 1622.24 1686.97 1621.9 1683.87 1620.32C1682.33 1619.49 1680.96 1618.36 1679.85 1616.99C1678.75 1615.63 1677.92 1614.06 1677.43 1612.38L1634.07 1471.47C1633.05 1468.14 1633.39 1464.54 1635.01 1461.46C1636.64 1458.38 1639.42 1456.06 1642.74 1455.02L1910.68 1372.68C1912.34 1372.17 1914.07 1371.98 1915.79 1372.14C1917.52 1372.29 1919.19 1372.79 1920.72 1373.59C1922.25 1374.4 1923.61 1375.5 1924.71 1376.83C1925.82 1378.16 1926.65 1379.69 1927.15 1381.34L1970.59 1522.25C1971.11 1523.91 1971.29 1525.65 1971.13 1527.37C1970.96 1529.09 1970.46 1530.77 1969.65 1532.3C1968.83 1533.83 1967.72 1535.18 1966.38 1536.28C1965.04 1537.38 1963.5 1538.2 1961.84 1538.7V1538.86ZM1963.43 1524.64L1919.83 1383.73C1919.63 1383.01 1919.27 1382.34 1918.8 1381.77C1918.33 1381.19 1917.75 1380.71 1917.09 1380.36C1916.43 1380.01 1915.7 1379.8 1914.96 1379.74C1914.21 1379.67 1913.46 1379.76 1912.75 1379.99L1644.97 1462.33C1644.25 1462.54 1643.58 1462.89 1643 1463.36C1642.43 1463.83 1641.95 1464.41 1641.6 1465.07C1641.25 1465.73 1641.04 1466.46 1640.97 1467.2C1640.91 1467.94 1641 1468.69 1641.23 1469.4L1684.59 1610.31C1685.05 1611.74 1686.04 1612.93 1687.36 1613.64C1688.68 1614.35 1690.22 1614.52 1691.67 1614.12L1751.97 1595.53L1799.07 1748.59C1799.53 1750.03 1800.53 1751.22 1801.85 1751.93C1802.55 1752.23 1803.29 1752.38 1804.04 1752.38C1804.79 1752.38 1805.54 1752.23 1806.23 1751.93L1946.8 1708.78C1948.25 1708.32 1949.45 1707.31 1950.15 1705.97C1950.85 1704.63 1950.99 1703.07 1950.54 1701.63L1903.45 1548.64L1959.61 1531.39C1960.97 1530.94 1962.11 1529.99 1962.82 1528.75C1963.52 1527.5 1963.74 1526.03 1963.43 1524.64V1524.64ZM209.39 1812.02L286.4 1490.38C286.875 1488.35 287.874 1486.48 289.3 1484.95C290.726 1483.43 292.528 1482.3 294.525 1481.69C296.522 1481.08 298.645 1481 300.682 1481.47C302.718 1481.93 304.597 1482.92 306.13 1484.34L550.684 1706.87C552.267 1708.27 553.442 1710.08 554.086 1712.09C554.73 1714.11 554.819 1716.26 554.343 1718.32C553.904 1720.35 552.939 1722.24 551.543 1723.79C550.147 1725.33 548.369 1726.49 546.387 1727.14L224.824 1825.92C223.668 1826.3 222.46 1826.49 221.244 1826.48C218.271 1826.46 215.421 1825.29 213.288 1823.22C211.709 1821.86 210.517 1820.11 209.833 1818.14C209.149 1816.17 208.996 1814.06 209.39 1812.02ZM217.982 1818.06C218.562 1818.59 219.273 1818.95 220.042 1819.12C220.81 1819.29 221.609 1819.25 222.358 1819.01L543.922 1720.22C544.678 1720 545.362 1719.58 545.904 1719.01C546.445 1718.43 546.824 1717.73 547.002 1716.96C547.18 1716.19 547.15 1715.39 546.917 1714.64C546.683 1713.88 546.253 1713.21 545.672 1712.67L301.038 1490.14C300.225 1489.43 299.179 1489.03 298.095 1489.03H296.742C295.988 1489.25 295.308 1489.67 294.775 1490.24C294.243 1490.81 293.877 1491.52 293.719 1492.29L216.71 1813.92C216.548 1814.68 216.587 1815.47 216.824 1816.21C217.061 1816.95 217.488 1817.61 218.061 1818.14L217.982 1818.06ZM161.498 1839.28C161.974 1837.22 161.885 1835.07 161.241 1833.05C160.597 1831.04 159.422 1829.23 157.838 1827.83L0.318047 1684.3V1694.39L152.826 1833.39C153.413 1833.91 153.85 1834.57 154.088 1835.31C154.326 1836.05 154.358 1836.85 154.179 1837.61C154.026 1838.38 153.663 1839.11 153.13 1839.69C152.598 1840.28 151.916 1840.71 151.156 1840.94L0 1887.28V1895.23L152.986 1848.26C155.11 1847.71 157.044 1846.59 158.574 1845.02C160.103 1843.45 161.17 1841.49 161.657 1839.35L161.498 1839.28ZM0.63658 974.594V982.542L3.10278 981.826C6.42936 980.783 9.20804 978.468 10.8325 975.386C12.4571 972.304 12.7953 968.705 11.7741 965.375L0.63658 929.055V954.487L4.61436 967.6C4.81911 968.321 4.87837 969.074 4.78868 969.818C4.69898 970.561 4.4621 971.279 4.09188 971.93C3.72167 972.581 3.22549 973.151 2.63227 973.609C2.03905 974.066 1.36067 974.401 0.63658 974.594V974.594ZM168.419 1255.7C167.391 1252.36 165.081 1249.56 161.994 1247.92C158.907 1246.29 155.296 1245.94 151.951 1246.95L0.795847 1293.52V1301.47L154.576 1253.79C155.281 1253.56 156.027 1253.47 156.766 1253.54C157.505 1253.61 158.222 1253.83 158.873 1254.18C159.54 1254.52 160.131 1254.99 160.61 1255.57C161.089 1256.14 161.445 1256.81 161.657 1257.52L204.697 1398.75C205.101 1400.21 204.93 1401.78 204.219 1403.12C203.508 1404.44 202.311 1405.44 200.878 1405.9L144.712 1423.15L191.809 1576.22C192.03 1576.92 192.108 1577.67 192.04 1578.41C191.972 1579.15 191.758 1579.87 191.411 1580.53C191.063 1581.19 190.588 1581.77 190.015 1582.24C189.442 1582.71 188.78 1583.07 188.069 1583.29L47.4153 1626.52C45.9701 1626.94 44.4168 1626.78 43.0918 1626.07C41.7667 1625.35 40.7763 1624.15 40.3347 1622.71L0.556947 1492.93V1518.36L33.3338 1624.93C34.1751 1627.61 35.8454 1629.96 38.104 1631.63C40.3626 1633.3 43.0933 1634.21 45.9037 1634.23C47.224 1634.25 48.5389 1634.06 49.8018 1633.68L190.376 1590.44C193.718 1589.41 196.515 1587.11 198.155 1584.02C199.796 1580.94 200.145 1577.33 199.127 1573.99L153.701 1428.07L202.787 1413.05C206.114 1412.01 208.892 1409.7 210.517 1406.61C212.141 1403.53 212.48 1399.93 211.459 1396.6L168.419 1255.7ZM874.872 1969.77C872.902 1970.39 871.13 1971.52 869.733 1973.04C868.337 1974.56 867.366 1976.42 866.917 1978.43L857.132 2019.36H865.087L874.474 1980.18C874.656 1979.43 875.029 1978.73 875.559 1978.16C876.088 1977.59 876.756 1977.16 877.497 1976.92H878.93C880.027 1976.93 881.081 1977.36 881.873 1978.12L927.379 2019.52H938.517L886.885 1972.55C885.322 1971.05 883.379 1970 881.263 1969.51C879.148 1969.02 876.939 1969.11 874.872 1969.77V1969.77ZM2167.25 809.446L2118.25 824.467L2163.11 970.382C2164.14 973.712 2163.8 977.311 2162.17 980.393C2160.55 983.475 2157.77 985.79 2154.44 986.833L2013.79 1029.99C2012.53 1030.4 2011.21 1030.61 2009.89 1030.62C2007.76 1030.6 2005.66 1030.08 2003.77 1029.11C2002.22 1028.28 2000.85 1027.15 1999.75 1025.78C1998.64 1024.42 1997.82 1022.85 1997.32 1021.17L1952.45 875.49L1899.31 891.861C1895.96 892.857 1892.36 892.497 1889.28 890.862C1886.2 889.226 1883.89 886.445 1882.84 883.119L1839.48 742.211C1838.45 738.888 1838.76 735.292 1840.36 732.197C1841.19 730.652 1842.32 729.287 1843.69 728.182C1845.06 727.077 1846.63 726.254 1848.31 725.76L2116.1 643.742C2117.76 643.224 2119.51 643.041 2121.24 643.204C2122.98 643.368 2124.66 643.875 2126.2 644.696C2127.74 645.523 2129.1 646.653 2130.2 648.019C2131.29 649.385 2132.1 650.958 2132.57 652.644L2176 793.552C2177.01 796.885 2176.67 800.482 2175.05 803.565C2173.31 806.474 2170.52 808.606 2167.25 809.526V809.446ZM2168.45 799.512C2169 798.108 2169 796.546 2168.45 795.141L2125.01 654.233C2124.58 652.808 2123.61 651.608 2122.3 650.895C2121.61 650.6 2120.87 650.448 2120.12 650.448C2119.36 650.448 2118.62 650.6 2117.93 650.895L1849.98 733.231C1848.55 733.69 1847.35 734.688 1846.64 736.012C1845.94 737.328 1845.77 738.865 1846.17 740.304L1889.6 881.212C1890.04 882.65 1891.03 883.856 1892.36 884.57C1893.68 885.284 1895.24 885.448 1896.68 885.027L1957.38 866.271L2004.48 1019.26C2004.94 1020.69 2005.94 1021.89 2007.27 1022.6C2008.61 1023.31 2010.18 1023.48 2011.64 1023.07L2152.22 979.839C2152.93 979.622 2153.59 979.266 2154.16 978.792C2154.73 978.319 2155.21 977.736 2155.56 977.079C2155.9 976.422 2156.12 975.703 2156.19 974.962C2156.25 974.222 2156.18 973.476 2155.96 972.766L2108.86 819.699L2165.02 802.453C2165.76 802.229 2166.44 801.86 2167.03 801.369C2167.61 800.877 2168.1 800.273 2168.45 799.592V799.512ZM1331.92 1486.17L1010.36 1585.04C1009.19 1585.35 1007.98 1585.51 1006.78 1585.51C1004.97 1585.52 1003.19 1585.11 1001.56 1584.32C999.939 1583.54 998.515 1582.39 997.397 1580.98C996.279 1579.56 995.496 1577.91 995.109 1576.15C994.721 1574.39 994.739 1572.56 995.16 1570.81L1072.17 1249.18C1072.61 1247.17 1073.58 1245.31 1074.98 1243.8C1076.38 1242.29 1078.15 1241.19 1080.13 1240.59C1082.1 1239.97 1084.21 1239.87 1086.24 1240.32C1088.26 1240.76 1090.13 1241.74 1091.66 1243.14L1336.29 1465.67C1337.85 1467.09 1339 1468.9 1339.63 1470.91C1340.26 1472.92 1340.34 1475.06 1339.87 1477.11C1339.49 1479.2 1338.55 1481.14 1337.15 1482.74C1335.75 1484.33 1333.94 1485.52 1331.92 1486.17V1486.17ZM1332.79 1475.76C1332.95 1474.99 1332.91 1474.19 1332.68 1473.44C1332.44 1472.69 1332.02 1472.01 1331.44 1471.47L1086.81 1248.94C1086.02 1248.18 1084.96 1247.75 1083.86 1247.75H1082.43C1081.69 1247.99 1081.02 1248.41 1080.49 1248.98C1079.96 1249.55 1079.59 1250.25 1079.41 1251.01L1002.48 1572.64C1002.29 1573.41 1002.3 1574.21 1002.53 1574.97C1002.75 1575.72 1003.17 1576.41 1003.74 1576.95C1004.32 1577.49 1005.03 1577.87 1005.8 1578.05C1006.57 1578.23 1007.37 1578.2 1008.13 1577.96L1329.69 1479.1C1330.47 1478.84 1331.17 1478.39 1331.72 1477.77C1332.26 1477.16 1332.64 1476.41 1332.79 1475.6V1475.76ZM1184.9 1764.01C1185.92 1767.35 1185.57 1770.96 1183.93 1774.05C1182.29 1777.13 1179.49 1779.44 1176.15 1780.46L1127.14 1795.56L1172.09 1941.4C1173.11 1944.74 1172.76 1948.35 1171.12 1951.43C1169.48 1954.52 1166.68 1956.82 1163.34 1957.85L1022.77 2001.09C1021.5 2001.46 1020.19 2001.65 1018.87 2001.64C1016.05 2001.66 1013.3 2000.76 1011.03 1999.08C1008.77 1997.41 1007.11 1995.04 1006.3 1992.34L961.349 1846.51L908.206 1862.8C904.872 1863.82 901.27 1863.48 898.185 1861.86C895.099 1860.24 892.782 1857.46 891.738 1854.14L848.38 1713.23C847.863 1711.58 847.678 1709.85 847.835 1708.12C847.992 1706.4 848.487 1704.73 849.293 1703.2C850.098 1701.67 851.199 1700.32 852.53 1699.22C853.862 1698.11 855.399 1697.29 857.052 1696.78L1125.07 1614.44C1126.72 1613.92 1128.46 1613.72 1130.19 1613.87C1131.91 1614.02 1133.59 1614.52 1135.13 1615.32C1136.66 1616.13 1138.02 1617.23 1139.12 1618.57C1140.22 1619.91 1141.04 1621.45 1141.54 1623.11L1184.9 1764.01ZM1177.74 1766.24L1134.38 1625.33C1133.92 1623.9 1132.92 1622.7 1131.6 1621.99C1130.25 1621.28 1128.69 1621.11 1127.22 1621.52L859.279 1703.93C858.561 1704.14 857.893 1704.49 857.314 1704.96C856.735 1705.43 856.257 1706.01 855.908 1706.67C855.559 1707.33 855.347 1708.06 855.284 1708.8C855.22 1709.55 855.308 1710.29 855.54 1711L898.898 1851.91C899.356 1853.35 900.365 1854.55 901.707 1855.25C903.048 1855.95 904.612 1856.1 906.058 1855.65L966.282 1837.13L1013.46 1990.2C1013.67 1990.91 1014.02 1991.58 1014.49 1992.16C1014.96 1992.74 1015.54 1993.22 1016.2 1993.56C1016.87 1993.91 1017.59 1994.13 1018.33 1994.19C1019.08 1994.25 1019.83 1994.16 1020.54 1993.93L1161.11 1950.78C1162.56 1950.32 1163.77 1949.31 1164.48 1947.98C1165.19 1946.64 1165.36 1945.08 1164.93 1943.63L1117.76 1790.64L1174 1773.31C1174.73 1773.1 1175.41 1772.73 1175.99 1772.25C1176.58 1771.76 1177.06 1771.17 1177.41 1770.49C1177.76 1769.82 1177.97 1769.08 1178.03 1768.32C1178.08 1767.56 1177.99 1766.8 1177.74 1766.08V1766.24ZM398.096 2015.47C398.915 2013.95 399.422 2012.28 399.586 2010.56C399.75 2008.84 399.568 2007.1 399.05 2005.46L355.693 1864.55C355.198 1862.86 354.374 1861.29 353.268 1859.93C352.162 1858.57 350.795 1857.43 349.248 1856.6C347.726 1855.78 346.055 1855.28 344.334 1855.11C342.612 1854.95 340.874 1855.13 339.224 1855.65L71.2819 1937.98C67.9407 1939.01 65.143 1941.32 63.5026 1944.4C61.8622 1947.49 61.5126 1951.09 62.5305 1954.43L82.5787 2019.36H90.5342L69.85 1952.29C69.4222 1950.84 69.5727 1949.29 70.2705 1947.96C70.9682 1946.62 72.1583 1945.61 73.5889 1945.14L341.611 1862.8C342.29 1862.51 343.021 1862.36 343.76 1862.36C344.498 1862.36 345.23 1862.51 345.908 1862.8C347.234 1863.51 348.232 1864.71 348.692 1866.14L392.368 2007.52C392.661 2008.2 392.813 2008.93 392.813 2009.67C392.813 2010.41 392.661 2011.14 392.368 2011.81C391.657 2013.14 390.459 2014.14 389.026 2014.6L373.115 2019.36H395.391C396.622 2018.23 397.597 2016.85 398.255 2015.31L398.096 2015.47ZM1149.02 857.052C1150.57 858.479 1151.72 860.285 1152.36 862.291C1153.01 864.297 1153.11 866.435 1152.68 868.496C1152.25 870.536 1151.29 872.426 1149.89 873.975C1148.49 875.524 1146.71 876.677 1144.72 877.318L822.922 976.184C821.755 976.498 820.552 976.658 819.343 976.661C816.37 976.639 813.52 975.472 811.387 973.402C809.839 971.977 808.699 970.166 808.083 968.154C807.468 966.143 807.4 964.004 807.886 961.958L884.896 640.325C885.36 638.317 886.336 636.464 887.73 634.946C889.125 633.428 890.89 632.296 892.852 631.662C894.838 631.068 896.944 630.997 898.965 631.457C900.987 631.916 902.854 632.891 904.387 634.285L1149.02 857.052ZM1144.01 862.615L899.375 640.087C898.587 639.321 897.531 638.893 896.432 638.894H895.079C894.319 639.113 893.631 639.531 893.086 640.103C892.541 640.676 892.158 641.383 891.977 642.153L815.046 963.786C814.855 964.552 814.872 965.355 815.094 966.113C815.316 966.871 815.737 967.556 816.312 968.098C816.887 968.64 817.596 969.02 818.366 969.198C819.136 969.376 819.94 969.345 820.695 969.11L1142.26 870.244C1143.03 870.041 1143.72 869.629 1144.27 869.054C1144.82 868.478 1145.2 867.763 1145.36 866.986C1145.54 866.203 1145.5 865.388 1145.27 864.621C1145.03 863.854 1144.6 863.163 1144.01 862.615V862.615ZM3140.38 1176.78L3091.29 1191.88L3136.24 1337.71C3136.75 1339.37 3136.94 1341.11 3136.77 1342.83C3136.61 1344.56 3136.11 1346.23 3135.3 1347.76C3134.48 1349.29 3133.37 1350.64 3132.03 1351.74C3130.69 1352.84 3129.15 1353.66 3127.49 1354.16L2986.91 1397.4C2985.65 1397.78 2984.33 1397.96 2983.01 1397.95C2980.88 1397.97 2978.77 1397.45 2976.89 1396.44C2975.34 1395.62 2973.97 1394.49 2972.86 1393.12C2971.75 1391.76 2970.93 1390.19 2970.44 1388.5L2925.5 1242.66L2872.35 1258.56C2870.7 1259.07 2868.97 1259.25 2867.24 1259.09C2865.52 1258.92 2863.85 1258.42 2862.33 1257.61C2860.8 1256.8 2859.46 1255.69 2858.36 1254.35C2857.27 1253.01 2856.46 1251.47 2855.96 1249.81L2812.53 1108.91C2812.01 1107.26 2811.83 1105.52 2811.99 1103.8C2812.16 1102.08 2812.66 1100.41 2813.48 1098.89C2814.31 1097.34 2815.44 1095.97 2816.81 1094.87C2818.17 1093.76 2819.75 1092.94 2821.44 1092.45L3089.3 1010.68C3092.64 1009.66 3096.26 1010.01 3099.34 1011.65C3102.43 1013.29 3104.74 1016.08 3105.77 1019.42L3149.05 1160.33C3150.07 1163.66 3149.73 1167.25 3148.1 1170.34C3146.48 1173.42 3143.7 1175.73 3140.38 1176.78V1176.78ZM3141.49 1166.84C3141.78 1166.17 3141.93 1165.43 3141.93 1164.7C3141.93 1163.96 3141.78 1163.23 3141.49 1162.55L3098.13 1021.64C3097.92 1020.93 3097.57 1020.26 3097.1 1019.67C3096.63 1019.09 3096.05 1018.61 3095.39 1018.26C3094.73 1017.9 3094.01 1017.68 3093.26 1017.61C3092.52 1017.53 3091.77 1017.61 3091.05 1017.83L2823.03 1100.16C2821.6 1100.62 2820.4 1101.62 2819.69 1102.95C2819.33 1103.61 2819.11 1104.34 2819.04 1105.09C2818.97 1105.84 2819.06 1106.6 2819.29 1107.32L2862.65 1248.22C2863.1 1249.67 2864.11 1250.87 2865.46 1251.57C2866.8 1252.27 2868.36 1252.41 2869.81 1251.96L2930.19 1233.44L2977.92 1386.51C2978.13 1387.23 2978.49 1387.89 2978.97 1388.47C2979.45 1389.04 2980.04 1389.51 2980.71 1389.85C2981.38 1390.14 2982.12 1390.29 2982.85 1390.29C2983.59 1390.29 2984.32 1390.14 2985 1389.85L3125.66 1346.61C3127.08 1346.16 3128.27 1345.16 3128.97 1343.84C3129.67 1342.52 3129.82 1340.97 3129.4 1339.54L3082.3 1186.47L3138.47 1169.23C3139.72 1168.8 3140.78 1167.96 3141.49 1166.84V1166.84ZM783.384 1901.03C786.71 1899.98 789.488 1897.67 791.113 1894.59C792.737 1891.5 793.076 1887.91 792.055 1884.58L748.697 1743.67C747.652 1740.34 745.338 1737.56 742.257 1735.93C739.175 1734.29 735.573 1733.93 732.229 1734.93L463.968 1817.26C462.278 1817.75 460.702 1818.57 459.336 1819.67C457.969 1820.78 456.839 1822.15 456.012 1823.7C455.193 1825.22 454.687 1826.89 454.523 1828.61C454.359 1830.33 454.54 1832.06 455.058 1833.71L498.415 1974.62C498.901 1976.31 499.723 1977.88 500.83 1979.25C501.937 1980.61 503.307 1981.74 504.86 1982.57C506.382 1983.39 508.054 1983.89 509.775 1984.06C511.497 1984.22 513.234 1984.04 514.884 1983.52L568.026 1967.23L583.937 2019.52H591.893L572.879 1957.85L512.656 1976.37C511.21 1976.82 509.646 1976.68 508.304 1975.98C506.963 1975.28 505.953 1974.07 505.496 1972.63L462.138 1831.73C461.904 1831.01 461.819 1830.25 461.888 1829.5C461.956 1828.75 462.176 1828.02 462.535 1827.35C463.247 1826.03 464.445 1825.03 465.877 1824.57L734.457 1742.08C735.902 1741.66 737.455 1741.82 738.78 1742.53C740.105 1743.25 741.096 1744.46 741.537 1745.89L784.895 1886.8C785.116 1887.51 785.195 1888.26 785.127 1889C785.058 1889.74 784.844 1890.46 784.496 1891.11C784.149 1891.77 783.675 1892.35 783.102 1892.83C782.529 1893.3 781.867 1893.66 781.156 1893.87L724.91 1911.12L758.244 2019.36H766.199L734.377 1916.05L783.384 1901.03ZM613.93 1706.08C610.957 1706.05 608.107 1704.89 605.974 1702.82C604.426 1701.39 603.286 1699.58 602.67 1697.57C602.055 1695.56 601.988 1693.42 602.474 1691.37L679.484 1369.74C679.965 1367.72 680.966 1365.87 682.386 1364.35C683.806 1362.84 685.597 1361.72 687.582 1361.11C689.566 1360.5 691.676 1360.42 693.702 1360.88C695.728 1361.33 697.601 1362.3 699.134 1363.7L943.768 1586.23C945.323 1587.65 946.474 1589.46 947.103 1591.47C947.731 1593.48 947.816 1595.62 947.347 1597.67C946.939 1599.72 945.985 1601.62 944.584 1603.18C943.184 1604.73 941.39 1605.88 939.392 1606.49L617.51 1705.52C616.355 1705.9 615.145 1706.09 613.93 1706.08V1706.08ZM615.283 1698.13L936.845 1599.26C937.61 1599.05 938.302 1598.64 938.849 1598.06C939.395 1597.49 939.775 1596.78 939.948 1596C940.109 1595.23 940.068 1594.43 939.832 1593.68C939.595 1592.93 939.17 1592.25 938.596 1591.71L693.963 1369.18C693.15 1368.47 692.104 1368.07 691.02 1368.07H689.667C688.907 1368.29 688.218 1368.71 687.673 1369.28C687.128 1369.85 686.745 1370.56 686.564 1371.33L609.635 1692.8C609.443 1693.57 609.46 1694.37 609.682 1695.13C609.904 1695.89 610.324 1696.57 610.899 1697.12C611.474 1697.66 612.184 1698.04 612.954 1698.22C613.724 1698.39 614.528 1698.36 615.283 1698.13V1698.13ZM2560.1 688.804L2511.01 703.825L2556.28 849.74C2556.8 851.388 2556.98 853.123 2556.81 854.843C2556.65 856.563 2556.14 858.232 2555.32 859.754C2554.49 861.302 2553.36 862.668 2552 863.774C2550.63 864.879 2549.06 865.701 2547.37 866.191L2406.63 909.425C2405.4 909.805 2404.11 909.992 2402.82 909.982C2399.99 909.976 2397.24 909.071 2394.97 907.399C2392.69 905.727 2391.01 903.375 2390.17 900.683L2345.3 755.006L2292.15 770.901C2290.5 771.423 2288.77 771.607 2287.05 771.443C2285.32 771.279 2283.65 770.771 2282.13 769.948C2280.58 769.125 2279.2 767.998 2278.1 766.632C2276.99 765.266 2276.17 763.691 2275.69 762L2232.25 621.092C2231.24 617.758 2231.58 614.162 2233.2 611.078C2234.04 609.533 2235.17 608.168 2236.54 607.063C2237.9 605.958 2239.47 605.135 2241.16 604.641L2509.1 522.306C2510.76 521.791 2512.5 521.609 2514.23 521.771C2515.95 521.933 2517.63 522.435 2519.16 523.247C2520.69 524.06 2522.05 525.168 2523.15 526.507C2524.25 527.846 2525.07 529.389 2525.57 531.048L2569.01 671.956C2569.56 673.646 2569.76 675.429 2569.61 677.2C2569.46 678.97 2568.95 680.692 2568.12 682.264C2567.29 683.835 2566.15 685.224 2564.77 686.347C2563.39 687.471 2561.8 688.306 2560.1 688.804V688.804ZM2561.69 674.499L2518.25 533.591C2518.03 532.88 2517.68 532.219 2517.2 531.647C2516.73 531.074 2516.15 530.601 2515.49 530.253C2514.83 529.906 2514.11 529.692 2513.37 529.624C2512.63 529.556 2511.88 529.635 2511.17 529.856L2243.23 611.953C2242.5 612.167 2241.82 612.524 2241.24 613.001C2240.65 613.479 2240.16 614.068 2239.81 614.734C2239.29 616.119 2239.29 617.641 2239.81 619.026L2283.24 759.934C2283.45 760.652 2283.8 761.321 2284.27 761.902C2284.75 762.484 2285.33 762.966 2285.98 763.321C2286.64 763.676 2287.37 763.896 2288.11 763.97C2288.86 764.043 2289.61 763.968 2290.32 763.749L2350.63 745.231L2397.17 898.458C2397.38 899.183 2397.74 899.858 2398.22 900.445C2398.69 901.031 2399.28 901.518 2399.95 901.875C2401.32 902.522 2402.87 902.663 2404.33 902.272L2544.9 859.038C2546.33 858.579 2547.53 857.581 2548.24 856.257C2548.54 855.579 2548.69 854.849 2548.69 854.111C2548.69 853.373 2548.54 852.643 2548.24 851.965L2501.15 698.898L2557.31 681.652C2558.08 681.485 2558.8 681.164 2559.44 680.71C2560.08 680.256 2560.62 679.677 2561.03 679.009C2561.44 678.34 2561.71 677.596 2561.82 676.821C2561.93 676.046 2561.89 675.256 2561.69 674.499V674.499ZM89.4203 599.872L357.363 517.537C360.708 516.52 364.319 516.869 367.406 518.508C370.493 520.147 372.804 522.941 373.832 526.279L417.189 667.585C418.035 670.87 417.58 674.355 415.921 677.315C414.262 680.275 411.525 682.483 408.279 683.48L359.193 698.5L404.142 844.415C404.659 846.064 404.841 847.799 404.677 849.518C404.513 851.238 404.007 852.908 403.187 854.429C402.361 855.98 401.231 857.349 399.864 858.454C398.497 859.56 396.922 860.38 395.232 860.866L255.055 904.259C253.792 904.644 252.477 904.832 251.157 904.816C248.347 904.793 245.615 903.881 243.357 902.21C241.098 900.539 239.429 898.196 238.587 895.517L193.479 749.602L140.415 765.974C138.752 766.493 137.003 766.676 135.268 766.512C133.534 766.348 131.849 765.841 130.312 765.02C128.769 764.193 127.41 763.063 126.316 761.697C125.222 760.331 124.416 758.758 123.948 757.073L80.5102 616.165C79.547 612.824 79.9429 609.239 81.6114 606.188C83.2799 603.137 86.086 600.868 89.4203 599.872V599.872ZM88.2273 609.807C87.6732 611.211 87.6732 612.773 88.2273 614.178L131.267 755.006C131.693 756.432 132.665 757.631 133.972 758.344C134.636 758.704 135.367 758.924 136.119 758.992C136.871 759.061 137.629 758.975 138.347 758.742L198.65 740.224L245.747 893.292C246.222 894.703 247.222 895.878 248.54 896.573C249.858 897.269 251.393 897.431 252.827 897.027L393.482 853.793C394.199 853.581 394.865 853.225 395.44 852.747C396.014 852.269 396.486 851.678 396.823 851.012C397.117 850.334 397.267 849.604 397.267 848.866C397.267 848.128 397.117 847.397 396.823 846.72L349.726 693.652L405.892 676.406C407.324 675.947 408.523 674.949 409.234 673.625C409.94 672.309 410.111 670.772 409.711 669.333L366.273 528.346C366.061 527.629 365.705 526.963 365.227 526.389C364.748 525.815 364.156 525.345 363.489 525.008C362.111 524.451 360.571 524.451 359.193 525.008L91.6481 607.025C90.9222 607.24 90.2459 607.596 89.6587 608.074C89.0716 608.551 88.5852 609.14 88.2273 609.807V609.807ZM2364.55 1828.71C2362.99 1827.27 2361.84 1825.45 2361.24 1823.42C2360.64 1821.39 2360.6 1819.23 2361.13 1817.18L2438.06 1495.63C2438.52 1493.62 2439.5 1491.77 2440.89 1490.25C2442.29 1488.73 2444.05 1487.6 2446.01 1486.97C2448.01 1486.33 2450.14 1486.24 2452.18 1486.7C2454.22 1487.16 2456.1 1488.16 2457.63 1489.59L2702.18 1712.12C2703.75 1713.53 2704.92 1715.34 2705.56 1717.35C2706.21 1719.36 2706.3 1721.51 2705.84 1723.57C2705.38 1725.63 2704.38 1727.54 2702.94 1729.08C2701.5 1730.63 2699.67 1731.77 2697.65 1732.38L2376.08 1831.17C2374.93 1831.55 2373.72 1831.73 2372.51 1831.73C2369.57 1831.74 2366.74 1830.66 2364.55 1828.71V1828.71ZM2369.64 1823.22C2370.21 1823.77 2370.91 1824.16 2371.69 1824.34C2372.46 1824.52 2373.26 1824.49 2374.02 1824.25L2695.66 1725.47C2696.48 1725.26 2697.22 1724.82 2697.81 1724.21C2698.39 1723.6 2698.79 1722.84 2698.97 1722.01C2699.14 1721.19 2699.08 1720.33 2698.79 1719.53C2698.5 1718.74 2697.99 1718.04 2697.33 1717.52L2452.7 1494.99C2451.9 1494.25 2450.85 1493.82 2449.75 1493.8C2449.3 1493.74 2448.85 1493.74 2448.4 1493.8C2447.65 1494.02 2446.98 1494.44 2446.44 1495.02C2445.91 1495.59 2445.54 1496.3 2445.38 1497.06L2368.37 1818.61C2368.1 1819.42 2368.08 1820.29 2368.3 1821.11C2368.53 1821.93 2369 1822.67 2369.64 1823.22V1823.22ZM2757.39 1707.98C2755.84 1706.57 2754.7 1704.75 2754.1 1702.73C2753.49 1700.72 2753.45 1698.58 2753.97 1696.54L2830.9 1374.91C2831.38 1372.91 2832.36 1371.06 2833.76 1369.54C2835.15 1368.03 2836.9 1366.89 2838.86 1366.24C2840.86 1365.63 2842.98 1365.54 2845.02 1366C2847.06 1366.46 2848.94 1367.45 2850.47 1368.87L3095.03 1591.39C3096.6 1592.81 3097.77 1594.62 3098.41 1596.63C3099.05 1598.64 3099.15 1600.79 3098.69 1602.85C3098.22 1604.91 3097.22 1606.81 3095.78 1608.36C3094.34 1609.91 3092.52 1611.05 3090.49 1611.66L2768.93 1710.45C2767.77 1710.83 2766.57 1711.01 2765.35 1711C2762.41 1711.03 2759.57 1709.95 2757.39 1707.98V1707.98ZM2762.49 1702.58C2763.07 1703.11 2763.78 1703.48 2764.55 1703.65C2765.31 1703.81 2766.11 1703.77 2766.86 1703.53L3088.5 1604.75C3089.26 1604.52 3089.95 1604.08 3090.48 1603.5C3091.01 1602.91 3091.37 1602.19 3091.53 1601.41C3091.71 1600.65 3091.68 1599.86 3091.44 1599.11C3091.2 1598.37 3090.76 1597.71 3090.18 1597.2L2845.54 1374.67C2844.74 1373.94 2843.69 1373.54 2842.6 1373.56H2841.25C2840.5 1373.79 2839.83 1374.21 2839.3 1374.78C2838.77 1375.35 2838.4 1376.05 2838.22 1376.81L2761.21 1698.37C2761.05 1699.12 2761.08 1699.9 2761.3 1700.64C2761.53 1701.38 2761.93 1702.04 2762.49 1702.58V1702.58ZM1979.82 1952.69C1978.02 1952.66 1976.24 1952.24 1974.63 1951.44C1973.02 1950.64 1971.6 1949.48 1970.49 1948.06C1969.39 1946.64 1968.61 1944.99 1968.23 1943.24C1967.85 1941.48 1967.87 1939.65 1968.28 1937.9L2045.21 1616.35C2045.7 1614.33 2046.7 1612.46 2048.13 1610.94C2049.55 1609.42 2051.35 1608.3 2053.34 1607.68C2055.33 1607.06 2057.44 1606.97 2059.48 1607.42C2061.51 1607.87 2063.4 1608.84 2064.94 1610.23L2309.58 1832.76C2311.12 1834.18 2312.27 1835.99 2312.9 1838C2313.52 1840.01 2313.61 1842.14 2313.15 1844.2C2312.69 1846.25 2311.7 1848.15 2310.28 1849.69C2308.86 1851.24 2307.05 1852.39 2305.04 1853.02L1983.48 1952.13C1982.3 1952.52 1981.06 1952.7 1979.82 1952.69V1952.69ZM1981.25 1944.74L2302.81 1845.95C2303.63 1845.74 2304.38 1845.3 2304.96 1844.69C2305.54 1844.08 2305.95 1843.32 2306.12 1842.5C2306.29 1841.67 2306.23 1840.81 2305.94 1840.02C2305.65 1839.22 2305.15 1838.53 2304.48 1838L2059.93 1615.48C2059.11 1614.71 2058.03 1614.28 2056.91 1614.28C2056.46 1614.22 2056.01 1614.22 2055.56 1614.28C2054.81 1614.51 2054.13 1614.93 2053.6 1615.5C2053.07 1616.07 2052.7 1616.78 2052.53 1617.54L1975.52 1939.65C1975.31 1940.42 1975.32 1941.24 1975.56 1942C1975.8 1942.76 1976.26 1943.43 1976.88 1943.94C1977.43 1944.51 1978.14 1944.91 1978.91 1945.09C1979.69 1945.27 1980.5 1945.23 1981.25 1944.98V1944.74ZM3483.5 1490.94L3161.93 1589.73C3160.78 1590.1 3159.57 1590.29 3158.35 1590.28C3155.39 1590.24 3152.54 1589.08 3150.4 1587.02C3148.85 1585.6 3147.71 1583.79 3147.1 1581.78C3146.48 1579.76 3146.41 1577.63 3146.9 1575.58L3223.91 1253.95C3224.38 1251.91 3225.38 1250.04 3226.81 1248.52C3228.23 1246.99 3230.04 1245.87 3232.03 1245.26C3234.03 1244.64 3236.15 1244.57 3238.19 1245.03C3240.23 1245.5 3242.11 1246.49 3243.64 1247.91L3488.19 1470.43C3489.76 1471.85 3490.93 1473.66 3491.57 1475.67C3492.21 1477.68 3492.31 1479.83 3491.85 1481.89C3491.39 1483.95 3490.39 1485.85 3488.95 1487.4C3487.51 1488.95 3485.68 1490.09 3483.66 1490.7L3483.5 1490.94ZM3484.37 1480.53C3484.56 1479.76 3484.53 1478.95 3484.29 1478.19C3484.05 1477.44 3483.61 1476.76 3483.02 1476.24L3238.39 1253.71C3237.57 1252.99 3236.53 1252.6 3235.44 1252.6H3234.09C3233.35 1252.83 3232.67 1253.25 3232.14 1253.82C3231.61 1254.39 3231.24 1255.09 3231.07 1255.85L3154.06 1577.49C3153.86 1578.25 3153.87 1579.06 3154.09 1579.82C3154.31 1580.57 3154.73 1581.26 3155.31 1581.8C3155.89 1582.34 3156.61 1582.71 3157.38 1582.87C3158.15 1583.04 3158.96 1582.99 3159.71 1582.73L3481.35 1483.95C3482.09 1483.72 3482.75 1483.31 3483.28 1482.75C3483.81 1482.2 3484.19 1481.51 3484.37 1480.77V1480.53ZM3551.2 1469.56C3552.41 1469.56 3553.61 1469.4 3554.78 1469.08L3593.6 1457.16V1449.22L3552.55 1462.33C3551.8 1462.56 3550.99 1462.59 3550.22 1462.42C3549.45 1462.24 3548.74 1461.86 3548.17 1461.32C3547.59 1460.77 3547.17 1460.09 3546.95 1459.33C3546.73 1458.57 3546.71 1457.77 3546.9 1457L3593.6 1261.97V1230.18L3539.58 1455.57C3539.11 1457.63 3539.18 1459.78 3539.8 1461.8C3540.41 1463.82 3541.54 1465.65 3543.09 1467.1C3545.36 1468.98 3548.25 1469.94 3551.2 1469.8V1469.56ZM1409.49 123.344C1411.64 125.38 1414.48 126.542 1417.44 126.603C1418.65 126.573 1419.86 126.386 1421.02 126.046L1742.58 27.1802C1744.56 26.5535 1746.34 25.4148 1747.74 23.8794C1749.14 22.3441 1750.1 20.4667 1750.54 18.4381C1751.03 16.3851 1750.95 14.2394 1750.32 12.226C1749.69 10.2125 1748.53 8.40532 1746.96 6.99372L1739.64 0.317905H1728.9L1742.35 12.4775C1742.92 13.0178 1743.34 13.6959 1743.58 14.4472C1743.82 15.1985 1743.86 15.9979 1743.7 16.7691C1743.52 17.5385 1743.13 18.2459 1742.59 18.8186C1742.04 19.3913 1741.36 19.8085 1740.6 20.0275L1418.63 119.212C1417.88 119.442 1417.08 119.468 1416.31 119.287C1415.54 119.105 1414.83 118.723 1414.26 118.178C1413.68 117.644 1413.25 116.963 1413.03 116.208C1412.81 115.452 1412.79 114.65 1412.99 113.887L1440.11 0.635809H1432.16L1405.43 111.9C1405.01 113.996 1405.16 116.166 1405.88 118.181C1406.59 120.196 1407.84 121.98 1409.49 123.344V123.344ZM482.266 479.151L750.368 396.816C753.705 395.807 757.305 396.15 760.392 397.769C761.939 398.602 763.304 399.734 764.41 401.098C765.517 402.462 766.341 404.032 766.835 405.717L810.194 546.625C811.215 549.955 810.876 553.554 809.252 556.636C807.627 559.718 804.849 562.033 801.522 563.076L752.436 578.176L797.385 724.011C797.9 725.666 798.082 727.405 797.92 729.13C797.759 730.854 797.256 732.53 796.442 734.059C795.629 735.589 794.52 736.942 793.179 738.041C791.839 739.141 790.295 739.963 788.634 740.463L648.059 783.697C646.795 784.076 645.481 784.263 644.161 784.253C642.025 784.271 639.918 783.752 638.035 782.743C636.483 781.917 635.113 780.788 634.006 779.423C632.899 778.058 632.077 776.484 631.591 774.796L586.643 628.96L533.499 644.855C531.849 645.368 530.113 645.549 528.392 645.386C526.671 645.224 525 644.721 523.475 643.908C521.95 643.094 520.603 641.987 519.51 640.648C518.418 639.31 517.602 637.769 517.111 636.113L473.673 495.205C472.767 491.939 473.154 488.449 474.753 485.46C476.353 482.471 479.044 480.212 482.266 479.151V479.151ZM480.674 493.456L524.033 634.364C524.493 635.795 525.491 636.992 526.817 637.702C527.508 637.998 528.253 638.15 529.005 638.15C529.757 638.15 530.5 637.998 531.192 637.702L591.257 619.9L638.99 772.65C639.202 773.366 639.558 774.032 640.037 774.606C640.516 775.18 641.107 775.65 641.774 775.988C642.425 776.345 643.142 776.564 643.881 776.633C644.62 776.701 645.366 776.617 646.071 776.385L786.724 733.151C787.436 732.933 788.097 732.578 788.67 732.104C789.244 731.63 789.718 731.048 790.066 730.391C790.413 729.733 790.627 729.014 790.695 728.274C790.764 727.534 790.685 726.787 790.464 726.078L743.367 573.01L799.534 555.764C800.966 555.304 802.163 554.307 802.874 552.983C803.168 552.305 803.319 551.575 803.319 550.837C803.319 550.099 803.168 549.368 802.874 548.691L759.517 407.783C759.302 407.058 758.945 406.382 758.467 405.796C757.989 405.209 757.4 404.723 756.733 404.366C755.394 403.724 753.87 403.583 752.436 403.968L484.413 486.304C482.97 486.761 481.768 487.769 481.068 489.11C480.367 490.45 480.225 492.012 480.674 493.456V493.456ZM961.588 248.357C963.171 249.76 964.346 251.564 964.99 253.578C965.634 255.592 965.723 257.742 965.247 259.802C964.816 261.842 963.853 263.732 962.456 265.281C961.059 266.83 959.278 267.983 957.292 268.623L635.728 367.41C634.573 367.788 633.364 367.976 632.148 367.966C629.179 367.929 626.334 366.764 624.193 364.708C622.645 363.283 621.504 361.471 620.889 359.46C620.274 357.449 620.205 355.31 620.692 353.264L697.702 31.6308C698.18 29.6296 699.161 27.7834 700.553 26.2674C701.946 24.7514 703.703 23.6158 705.658 22.9681C707.656 22.367 709.775 22.2926 711.811 22.7522C713.846 23.2117 715.727 24.1896 717.272 25.5908L961.588 248.357ZM956.576 253.921L711.943 31.3924C711.155 30.6269 710.099 30.1992 708.999 30.2003H707.646C706.901 30.4313 706.229 30.8538 705.698 31.4257C705.168 31.9976 704.797 32.6986 704.623 33.4587L627.613 355.091C627.427 355.855 627.447 356.655 627.67 357.409C627.894 358.163 628.314 358.844 628.886 359.383C629.467 359.914 630.173 360.287 630.939 360.468C631.705 360.649 632.505 360.631 633.262 360.416L954.825 261.471C955.589 261.259 956.282 260.845 956.829 260.271C957.375 259.697 957.755 258.985 957.928 258.212C958.04 257.502 957.976 256.775 957.74 256.096C957.505 255.417 957.105 254.806 956.576 254.318V253.921ZM0.397681 329.898V339.991L170.886 495.364C171.473 495.877 171.909 496.54 172.147 497.282C172.385 498.024 172.416 498.817 172.237 499.576C172.084 500.354 171.722 501.075 171.19 501.663C170.657 502.251 169.974 502.684 169.214 502.914L0.397681 554.811V562.758L171.362 510.225C173.348 509.585 175.13 508.432 176.527 506.883C177.924 505.334 178.887 503.444 179.318 501.404C179.794 499.344 179.706 497.194 179.062 495.18C178.418 493.166 177.242 491.362 175.659 489.959L0.397681 329.898ZM568.743 369.079C570.326 370.482 571.502 372.285 572.146 374.299C572.79 376.313 572.878 378.463 572.402 380.523C571.963 382.56 570.998 384.446 569.602 385.994C568.206 387.542 566.429 388.697 564.447 389.345L242.883 488.132C241.727 488.51 240.519 488.697 239.303 488.688C236.333 488.65 233.489 487.485 231.348 485.429C229.792 484.011 228.652 482.197 228.05 480.181C227.447 478.165 227.404 476.023 227.926 473.985L304.857 152.352C305.335 150.351 306.317 148.505 307.709 146.989C309.101 145.473 310.858 144.337 312.812 143.69C314.809 143.073 316.932 142.99 318.97 143.45C321.009 143.91 322.891 144.897 324.427 146.312L568.743 369.079ZM563.731 374.642L319.098 152.114C318.293 151.384 317.241 150.987 316.154 151.001H314.801C314.056 151.232 313.384 151.655 312.853 152.227C312.323 152.799 311.952 153.5 311.778 154.26L234.768 475.893C234.582 476.656 234.602 477.456 234.825 478.21C235.049 478.964 235.468 479.645 236.041 480.184C236.621 480.715 237.331 481.083 238.1 481.25C238.868 481.418 239.668 481.379 240.417 481.138L562.059 382.351C562.805 382.12 563.477 381.698 564.008 381.126C564.538 380.554 564.909 379.853 565.083 379.093C565.299 378.299 565.288 377.46 565.049 376.673C564.809 375.886 564.353 375.182 563.731 374.642V374.642ZM1920.31 1965.24C1920.8 1963.19 1920.72 1961.04 1920.09 1959.03C1919.46 1957.02 1918.3 1955.21 1916.73 1953.8L1672.1 1731.27C1670.56 1729.89 1668.68 1728.94 1666.66 1728.5C1664.64 1728.06 1662.54 1728.15 1660.57 1728.75C1658.59 1729.36 1656.81 1730.47 1655.38 1731.97C1653.96 1733.47 1652.95 1735.31 1652.45 1737.31L1584.83 2019.68H1592.78L1659.93 1739.06C1660.1 1738.31 1660.48 1737.62 1661.01 1737.06C1661.54 1736.5 1662.21 1736.1 1662.95 1735.88C1663.4 1735.82 1663.85 1735.82 1664.3 1735.88C1665.43 1735.87 1666.51 1736.3 1667.32 1737.07L1911.88 1959.6C1912.54 1960.12 1913.05 1960.82 1913.34 1961.61C1913.63 1962.41 1913.69 1963.26 1913.51 1964.09C1913.34 1964.92 1912.94 1965.68 1912.35 1966.29C1911.77 1966.9 1911.03 1967.34 1910.21 1967.55L1739.24 2020H1764.7L1912.43 1974.62C1914.48 1973.93 1916.3 1972.69 1917.69 1971.04C1919.08 1969.38 1919.99 1967.38 1920.31 1965.24V1965.24ZM3419.3 1853.98C3417.33 1854.61 3415.57 1855.74 3414.18 1857.26C3412.78 1858.78 3411.8 1860.63 3411.34 1862.64L3373.87 2019.13H3381.83L3418.82 1864.39C3419 1863.62 3419.38 1862.91 3419.93 1862.34C3420.47 1861.77 3421.16 1861.35 3421.92 1861.13H3423.27C3424.37 1861.13 3425.43 1861.56 3426.22 1862.32L3594 2015.07V2004.98L3431.23 1856.76C3429.65 1855.31 3427.71 1854.31 3425.61 1853.86C3423.51 1853.41 3421.33 1853.54 3419.3 1854.22V1853.98ZM2540.37 2019.36H2550.07C2551.11 2016.49 2551.11 2013.34 2550.07 2010.46L2506.72 1869.55C2506.23 1867.87 2505.41 1866.29 2504.3 1864.93C2503.19 1863.56 2501.82 1862.43 2500.27 1861.61C2498.75 1860.79 2497.08 1860.28 2495.36 1860.12C2493.63 1859.96 2491.9 1860.14 2490.25 1860.65L2222.3 1942.99C2218.96 1944.02 2216.17 1946.32 2214.53 1949.41C2212.89 1952.49 2212.54 1956.1 2213.55 1959.44L2232.01 2019.21H2239.97L2220.87 1957.22C2220.65 1956.5 2220.58 1955.75 2220.65 1955.01C2220.72 1954.26 2220.94 1953.54 2221.3 1952.88C2221.66 1952.22 2222.14 1951.64 2222.72 1951.17C2223.3 1950.7 2223.97 1950.35 2224.69 1950.14L2493.19 1867.65C2493.87 1867.35 2494.6 1867.2 2495.34 1867.2C2496.08 1867.2 2496.81 1867.35 2497.49 1867.65C2498.15 1867.99 2498.75 1868.46 2499.22 1869.03C2499.7 1869.6 2500.06 1870.27 2500.27 1870.99L2543.71 2011.89C2544.11 2013.36 2543.94 2014.92 2543.23 2016.26C2542.99 2016.95 2542.61 2017.58 2542.12 2018.11C2541.63 2018.64 2541.03 2019.07 2540.37 2019.36ZM3026.13 1974.94C3024.18 1975.59 3022.42 1976.72 3021.03 1978.24C3019.64 1979.75 3018.66 1981.6 3018.18 1983.6L3009.59 2019.36H3017.54L3025.5 1985.35C3025.67 1984.59 3026.04 1983.89 3026.57 1983.32C3027.1 1982.74 3027.77 1982.32 3028.52 1982.09H3029.87C3030.96 1982.09 3032 1982.49 3032.82 1983.2L3072.59 2019.52H3083.65L3037.75 1977.72C3036.26 1976.33 3034.44 1975.35 3032.46 1974.86C3030.49 1974.37 3028.42 1974.4 3026.45 1974.94H3026.13ZM2934.64 1906.19C2937.97 1905.15 2940.75 1902.83 2942.37 1899.75C2944 1896.67 2944.34 1893.07 2943.32 1889.74L2899.96 1748.83C2898.93 1745.5 2896.62 1742.7 2893.53 1741.06C2890.45 1739.42 2886.83 1739.07 2883.49 1740.09L2615.55 1822.43C2612.21 1823.45 2609.41 1825.76 2607.77 1828.85C2606.13 1831.93 2605.78 1835.54 2606.8 1838.88L2650.23 1979.79C2650.72 1981.44 2651.54 1982.98 2652.63 1984.32C2653.72 1985.66 2655.07 1986.77 2656.6 1987.58C2658.12 1988.39 2659.79 1988.9 2661.51 1989.06C2663.24 1989.22 2664.97 1989.04 2666.62 1988.53L2719.77 1972.16L2734.32 2019.36H2742.28L2724.94 1962.86L2664.63 1981.38C2663.91 1981.61 2663.16 1981.69 2662.4 1981.63C2661.65 1981.56 2660.92 1981.34 2660.26 1980.98C2658.93 1980.27 2657.93 1979.07 2657.47 1977.64L2614.12 1836.73C2613.67 1835.29 2613.81 1833.73 2614.51 1832.39C2615.21 1831.05 2616.41 1830.04 2617.85 1829.58L2885.88 1747.24C2887.31 1746.84 2888.85 1747 2890.16 1747.7C2891.48 1748.39 2892.48 1749.57 2892.96 1750.98L2936.32 1891.97C2936.54 1892.68 2936.61 1893.42 2936.55 1894.16C2936.48 1894.9 2936.26 1895.62 2935.92 1896.28C2935.57 1896.94 2935.1 1897.52 2934.52 1897.99C2933.95 1898.47 2933.29 1898.82 2932.58 1899.04L2876.41 1916.29L2908.23 2019.6H2916.19L2885.96 1921.45L2934.64 1906.19ZM1202.88 425.744C1203.4 427.393 1203.58 429.128 1203.41 430.847C1203.25 432.567 1202.74 434.237 1201.93 435.758C1201.11 437.314 1199.98 438.687 1198.61 439.794C1197.24 440.901 1195.66 441.718 1193.97 442.195L1144.88 457.296L1189.83 603.131C1190.35 604.785 1190.53 606.525 1190.37 608.249C1190.21 609.974 1189.7 611.649 1188.89 613.179C1188.08 614.709 1186.97 616.062 1185.63 617.161C1184.29 618.26 1182.74 619.083 1181.08 619.582L1040.75 662.816C1039.48 663.195 1038.17 663.383 1036.85 663.373C1034.03 663.388 1031.28 662.49 1029.01 660.813C1026.75 659.137 1025.09 656.773 1024.28 654.074L979.329 508.636L926.185 524.531C922.852 525.551 919.249 525.213 916.164 523.59C913.079 521.967 910.762 519.191 909.718 515.868L866.359 374.96C865.84 373.299 865.657 371.55 865.821 369.818C865.985 368.085 866.492 366.402 867.314 364.867C868.142 363.325 869.274 361.967 870.641 360.875C872.008 359.782 873.583 358.977 875.27 358.509L1143.21 276.173C1146.54 275.141 1150.14 275.455 1153.24 277.048C1154.78 277.881 1156.15 279.012 1157.26 280.376C1158.36 281.741 1159.19 283.31 1159.68 284.995L1202.88 425.744ZM1195.72 427.969L1152.36 287.061C1151.9 285.63 1150.9 284.434 1149.58 283.723C1148.23 283.013 1146.67 282.843 1145.2 283.247L877.657 365.582C876.945 365.8 876.284 366.156 875.71 366.629C875.137 367.103 874.663 367.685 874.316 368.342C873.968 369 873.754 369.719 873.686 370.459C873.617 371.199 873.697 371.946 873.918 372.655L917.275 513.563C917.732 515.005 918.742 516.207 920.084 516.906C921.425 517.606 922.99 517.747 924.435 517.299L984.658 498.781L1031.44 651.69C1031.65 652.401 1032.01 653.061 1032.49 653.634C1032.96 654.207 1033.54 654.68 1034.2 655.027C1034.86 655.374 1035.58 655.588 1036.32 655.657C1037.06 655.725 1037.81 655.646 1038.52 655.425L1179.09 612.271C1180.54 611.812 1181.75 610.808 1182.46 609.471C1183.17 608.134 1183.34 606.572 1182.91 605.118L1135.73 452.13L1191.98 434.804C1192.7 434.592 1193.36 434.236 1193.94 433.758C1194.51 433.28 1194.98 432.689 1195.32 432.023C1196.03 430.797 1196.23 429.341 1195.88 427.969H1195.72ZM1016.64 244.066C1018.8 246.079 1021.64 247.213 1024.6 247.245C1025.8 247.243 1027.01 247.082 1028.18 246.768L1349.74 147.902C1351.72 147.261 1353.51 146.108 1354.9 144.559C1356.3 143.01 1357.26 141.12 1357.69 139.08C1358.15 137.02 1358.06 134.875 1357.41 132.864C1356.77 130.853 1355.6 129.049 1354.04 127.636L1214.18 0.476827H1203.83L1349.74 133.358C1350.33 133.884 1350.77 134.561 1351.01 135.317C1351.25 136.073 1351.28 136.879 1351.09 137.65C1350.93 138.426 1350.55 139.142 1350 139.717C1349.45 140.293 1348.76 140.705 1347.99 140.908L1026.43 239.774C1025.67 240.005 1024.87 240.031 1024.1 239.849C1023.33 239.668 1022.62 239.285 1022.05 238.741C1021.48 238.202 1021.06 237.521 1020.83 236.767C1020.61 236.013 1020.59 235.213 1020.78 234.449L1076.47 0.476827H1068.51L1012.82 232.701C1012.41 234.763 1012.55 236.897 1013.22 238.89C1013.89 240.883 1015.07 242.667 1016.64 244.066ZM3564.96 1878.22C3564.25 1878.45 3563.5 1878.54 3562.76 1878.47C3562.01 1878.41 3561.29 1878.2 3560.63 1877.85C3559.97 1877.5 3559.38 1877.02 3558.91 1876.45C3558.44 1875.87 3558.09 1875.2 3557.88 1874.48L3510.94 1721.41L3450.72 1739.93C3450 1740.17 3449.24 1740.25 3448.49 1740.18C3447.74 1740.11 3447.01 1739.89 3446.35 1739.54C3445.02 1738.82 3444.02 1737.63 3443.56 1736.2L3400.2 1595.29C3399.97 1594.58 3399.88 1593.83 3399.95 1593.09C3400.01 1592.34 3400.22 1591.62 3400.57 1590.96C3400.92 1590.3 3401.4 1589.72 3401.98 1589.25C3402.56 1588.77 3403.23 1588.42 3403.94 1588.22L3593.84 1529.8V1521.85L3401.71 1580.9C3400.06 1581.41 3398.52 1582.24 3397.19 1583.34C3395.86 1584.45 3394.76 1585.8 3393.96 1587.33C3393.15 1588.86 3392.65 1590.53 3392.5 1592.25C3392.34 1593.97 3392.53 1595.71 3393.04 1597.36L3436.4 1738.26C3437.45 1741.59 3439.76 1744.36 3442.85 1745.99C3445.93 1747.61 3449.53 1747.95 3452.87 1746.93L3506.01 1731.03L3550.96 1876.95C3551.78 1879.63 3553.45 1881.98 3555.72 1883.64C3557.98 1885.3 3560.72 1886.19 3563.53 1886.17C3564.85 1886.17 3566.16 1885.98 3567.43 1885.61L3593.84 1877.66V1869.71L3564.96 1878.22ZM849.414 54.6783C850.734 54.6886 852.048 54.501 853.312 54.122L993.887 10.888C996.259 10.1754 998.379 8.803 999.999 6.93121C1001.62 5.05942 1002.67 2.76562 1003.04 0.317905H995.081C994.805 1.13437 994.336 1.87185 993.712 2.46708C993.089 3.06231 992.33 3.49752 991.501 3.73531L850.846 46.9694C850.168 47.2625 849.437 47.4136 848.698 47.4136C847.959 47.4136 847.228 47.2625 846.55 46.9694C845.883 46.6319 845.292 46.1616 844.813 45.5877C844.334 45.0137 843.978 44.3479 843.766 43.6314L830.559 0.71524H822.604L836.526 45.7773C837.431 48.4479 839.174 50.756 841.495 52.3594C843.817 53.9628 846.593 54.7759 849.414 54.6783ZM335.884 35.6045C337.42 36.4254 339.105 36.9325 340.839 37.0962C342.574 37.2599 344.324 37.0771 345.987 36.5582L399.05 20.6633L443.999 166.499C444.841 169.178 446.511 171.521 448.77 173.192C451.028 174.862 453.758 175.775 456.569 175.797C457.889 175.814 459.205 175.626 460.468 175.241L601.042 132.007C602.702 131.508 604.248 130.685 605.588 129.586C606.928 128.487 608.037 127.133 608.851 125.604C609.664 124.074 610.166 122.399 610.328 120.674C610.49 118.949 610.308 117.21 609.793 115.556L574.391 0H566.435L602.474 117.066C602.696 117.775 602.774 118.522 602.705 119.262C602.637 120.002 602.424 120.721 602.076 121.379C601.729 122.036 601.254 122.618 600.681 123.092C600.107 123.565 599.446 123.921 598.734 124.139L458.081 167.373C456.646 167.798 455.102 167.645 453.779 166.947C452.456 166.248 451.458 165.061 451 163.638L403.903 10.5701L343.6 29.0876C342.909 29.3828 342.164 29.5349 341.412 29.5349C340.66 29.5349 339.916 29.3828 339.224 29.0876C337.918 28.3747 336.946 27.175 336.52 25.7497L328.564 0.397396H320.609L329.122 27.8955C329.665 29.5724 330.544 31.121 331.707 32.4465C332.87 33.7721 334.291 34.8467 335.884 35.6045V35.6045ZM2108.14 1982.73C2106.62 1981.9 2104.95 1981.4 2103.23 1981.23C2101.51 1981.07 2099.77 1981.25 2098.12 1981.77L1974.89 2019.6H2000.34L2100.35 1988.93C2101.05 1988.69 2101.8 1988.61 2102.53 1988.68C2103.27 1988.75 2103.99 1988.97 2104.64 1989.32C2105.31 1989.66 2105.9 1990.13 2106.38 1990.7C2106.86 1991.28 2107.21 1991.94 2107.43 1992.66L2115.78 2019.6H2123.73L2114.75 1990.52C2114.27 1988.79 2113.43 1987.18 2112.3 1985.8C2111.16 1984.42 2109.74 1983.29 2108.14 1982.49V1982.73ZM222.676 60.8774C223.1 62.3317 222.938 63.894 222.225 65.2305C221.511 66.567 220.302 67.5718 218.857 68.03L162.691 85.276L209.788 238.423C210.021 239.132 210.108 239.881 210.045 240.625C209.982 241.369 209.769 242.092 209.42 242.752C209.071 243.412 208.593 243.995 208.014 244.466C207.435 244.938 206.766 245.288 206.049 245.496L65.474 288.73C64.0183 289.154 62.4545 288.992 61.1166 288.279C59.7786 287.567 58.7731 286.359 58.3143 284.916L11.2176 131.927L0.397681 135.265V143.213L6.28471 141.385L51.1541 287.3C51.9996 289.992 53.6819 292.344 55.9564 294.016C58.231 295.688 60.9797 296.593 63.8037 296.598C65.0976 296.609 66.3853 296.421 67.6222 296.042L208.276 252.808C211.603 251.765 214.382 249.45 216.007 246.368C217.631 243.286 217.969 239.687 216.948 236.357L171.999 90.4418L221.085 75.4212C224.414 74.3765 227.198 72.0654 228.835 68.9871C230.473 65.9089 230.832 62.3107 229.836 58.97L211.857 0.794732H203.901L222.676 60.8774ZM2088.25 153.942C2089.28 157.28 2091.59 160.074 2094.68 161.713C2097.77 163.352 2101.38 163.701 2104.72 162.684L2157.86 146.312L2202.73 292.227C2203.58 294.919 2205.26 297.271 2207.54 298.943C2209.81 300.616 2212.56 301.52 2215.38 301.526C2216.68 301.537 2217.96 301.349 2219.2 300.969L2359.86 257.735C2363.18 256.692 2365.96 254.377 2367.59 251.295C2369.21 248.213 2369.55 244.615 2368.53 241.284L2323.66 95.3692L2372.66 80.3486C2374.35 79.8545 2375.92 79.0311 2377.29 77.9261C2378.65 76.8211 2379.79 75.4565 2380.62 73.9112C2381.41 72.3195 2381.88 70.5847 2381.99 68.8099C2382.1 67.035 2381.85 65.2564 2381.26 63.5795L2361.77 0H2353.81L2374.02 65.4869C2374.57 66.8913 2374.57 68.4535 2374.02 69.858C2373.66 70.5245 2373.17 71.1135 2372.58 71.5909C2372 72.0683 2371.32 72.4248 2370.6 72.6396L2314.43 89.8855L2361.53 242.953C2361.75 243.663 2361.83 244.409 2361.76 245.149C2361.69 245.889 2361.48 246.609 2361.13 247.266C2360.78 247.923 2360.31 248.505 2359.73 248.979C2359.16 249.453 2358.5 249.809 2357.79 250.026L2217.21 293.26C2215.76 293.684 2214.19 293.522 2212.86 292.809C2211.52 292.097 2210.51 290.889 2210.05 289.446L2162.96 136.457L2102.81 155.293C2102.1 155.512 2101.34 155.588 2100.6 155.514C2099.85 155.441 2099.13 155.22 2098.47 154.865C2097.81 154.51 2097.23 154.028 2096.76 153.447C2096.29 152.865 2095.94 152.196 2095.73 151.478L2052.29 10.5701C2051.87 9.12636 2052.04 7.57483 2052.75 6.25114C2053.47 4.92744 2054.67 3.93801 2056.11 3.49689L2066.53 0.317905H2047.84C2046.36 1.99501 2045.34 4.02534 2044.88 6.21166C2044.42 8.39798 2044.54 10.666 2045.21 12.7954L2088.25 153.942ZM2379.11 479.31L2456.04 157.757C2456.5 155.749 2457.48 153.896 2458.87 152.378C2460.27 150.859 2462.03 149.728 2463.99 149.094C2465.99 148.46 2468.12 148.369 2470.16 148.83C2472.2 149.291 2474.08 150.288 2475.61 151.717L2720.24 374.245C2721.8 375.666 2722.95 377.474 2723.58 379.485C2724.21 381.495 2724.29 383.636 2723.82 385.689C2723.39 387.729 2722.43 389.619 2721.03 391.168C2719.63 392.717 2717.85 393.87 2715.87 394.511L2394.22 493.297C2393.07 493.675 2391.86 493.863 2390.64 493.854C2387.68 493.801 2384.84 492.638 2382.69 490.595C2381.1 489.182 2379.92 487.362 2379.29 485.331C2378.66 483.3 2378.6 481.136 2379.11 479.071V479.31ZM2387.7 485.35C2388.26 485.917 2388.96 486.315 2389.74 486.498C2390.51 486.681 2391.32 486.641 2392.08 486.383L2713.64 387.596C2714.4 387.366 2715.08 386.934 2715.61 386.346C2716.15 385.758 2716.51 385.037 2716.66 384.259C2716.84 383.488 2716.81 382.684 2716.57 381.929C2716.33 381.175 2715.9 380.498 2715.31 379.967L2470.76 157.439C2469.92 156.7 2468.85 156.279 2467.73 156.247C2467.28 156.187 2466.83 156.187 2466.38 156.247C2465.63 156.47 2464.95 156.89 2464.42 157.464C2463.89 158.037 2463.52 158.742 2463.36 159.505L2386.35 481.058C2386.26 481.744 2386.33 482.441 2386.57 483.092C2386.8 483.742 2387.19 484.326 2387.7 484.794V485.35ZM2487.54 41.0088C2489.06 41.8317 2490.73 42.3402 2492.46 42.504C2494.18 42.6679 2495.92 42.4837 2497.57 41.9625L2550.71 25.5908L2595.58 171.506C2596.42 174.197 2598.11 176.55 2600.38 178.222C2602.65 179.894 2605.4 180.798 2608.23 180.804C2609.52 180.815 2610.81 180.627 2612.05 180.248L2752.7 137.014C2756.03 135.971 2758.81 133.655 2760.43 130.574C2762.06 127.492 2762.39 123.893 2761.37 120.563L2724.38 0.556318H2716.42L2754.05 122.788C2754.29 123.497 2754.37 124.246 2754.31 124.99C2754.25 125.733 2754.03 126.457 2753.69 127.117C2753.34 127.777 2752.86 128.36 2752.28 128.831C2751.7 129.303 2751.03 129.653 2750.31 129.861L2609.66 173.095C2608.28 173.652 2606.74 173.652 2605.36 173.095C2604.7 172.738 2604.11 172.252 2603.63 171.665C2603.15 171.078 2602.79 170.403 2602.58 169.678L2555.64 15.8949L2495.34 34.4124C2493.9 34.8371 2492.36 34.684 2491.04 33.9859C2489.71 33.2879 2488.72 32.1003 2488.26 30.6771L2478.87 0.158922H2470.92L2481.02 32.8229C2481.5 34.5261 2482.32 36.1118 2483.45 37.4797C2484.57 38.8476 2485.96 39.9681 2487.54 40.7703V41.0088ZM2952.94 568.321L2903.86 583.421L2948.8 729.257C2949.32 730.905 2949.5 732.64 2949.34 734.36C2949.18 736.08 2948.67 737.749 2947.85 739.271C2947.02 740.821 2945.89 742.19 2944.53 743.296C2943.16 744.402 2941.58 745.222 2939.89 745.708L2799.32 788.942C2798.06 789.321 2796.74 789.509 2795.42 789.498C2792.61 789.476 2789.88 788.564 2787.62 786.893C2785.36 785.222 2783.69 782.879 2782.85 780.2L2737.9 634.285L2684.84 650.657C2683.18 651.175 2681.43 651.358 2679.69 651.195C2677.96 651.031 2676.27 650.524 2674.74 649.703C2673.19 648.876 2671.83 647.746 2670.74 646.38C2669.65 645.014 2668.84 643.441 2668.37 641.756L2625.09 500.689C2624.08 497.348 2624.43 493.74 2626.07 490.656C2627.71 487.572 2630.5 485.264 2633.84 484.237L2901.79 401.902C2903.44 401.385 2905.17 401.203 2906.9 401.367C2908.62 401.531 2910.29 402.037 2911.81 402.856C2913.36 403.689 2914.72 404.82 2915.83 406.184C2916.94 407.549 2917.76 409.118 2918.26 410.803L2962.01 551.632C2962.53 553.28 2962.71 555.015 2962.55 556.735C2962.38 558.455 2961.88 560.124 2961.06 561.645C2960.22 563.218 2959.07 564.601 2957.67 565.709C2956.28 566.817 2954.66 567.625 2952.94 568.083V568.321ZM2954.45 554.095L2911.1 413.267C2910.64 411.836 2909.64 410.639 2908.31 409.929C2906.99 409.242 2905.44 409.099 2904.02 409.531L2635.83 491.469C2634.4 491.944 2633.21 492.955 2632.52 494.29C2631.82 495.625 2631.67 497.178 2632.09 498.622L2675.61 639.53C2676.04 640.956 2677.01 642.155 2678.32 642.868C2679.01 643.163 2679.75 643.315 2680.5 643.315C2681.26 643.315 2682 643.163 2682.69 642.868L2742.99 624.351L2790.09 777.418C2790.55 778.841 2791.55 780.029 2792.87 780.727C2794.19 781.425 2795.74 781.578 2797.17 781.154L2938.14 738.317C2938.86 738.105 2939.53 737.749 2940.1 737.271C2940.68 736.792 2941.15 736.202 2941.49 735.535C2941.78 734.858 2941.93 734.128 2941.93 733.389C2941.93 732.651 2941.78 731.921 2941.49 731.244L2894.39 578.176L2950.56 560.93C2951.28 560.729 2951.96 560.385 2952.55 559.919C2953.14 559.452 2953.63 558.873 2954 558.214C2954.36 557.555 2954.59 556.83 2954.66 556.081C2954.74 555.333 2954.67 554.577 2954.45 553.857V554.095ZM3108.63 274.028L2786.99 372.576C2785.83 372.954 2784.63 373.142 2783.41 373.132C2780.44 373.079 2777.6 371.916 2775.45 369.874C2773.9 368.455 2772.76 366.641 2772.16 364.625C2771.55 362.609 2771.51 360.468 2772.03 358.429L2848.96 36.7966C2849.44 34.7954 2850.42 32.9493 2851.81 31.4333C2853.21 29.9173 2854.96 28.7816 2856.92 28.1339C2858.92 27.5168 2861.04 27.4342 2863.08 27.8945C2865.12 28.3547 2867 29.3417 2868.53 30.7566L3113.17 253.285C3114.72 254.706 3115.87 256.514 3116.5 258.525C3117.13 260.535 3117.21 262.676 3116.75 264.729C3116.34 266.831 3115.37 268.783 3113.94 270.379C3112.51 271.974 3110.68 273.153 3108.63 273.789V274.028ZM3109.51 263.537C3109.69 262.778 3109.65 261.985 3109.42 261.243C3109.18 260.501 3108.74 259.838 3108.15 259.325L2863.52 36.7966C2862.72 36.0671 2861.66 35.6695 2860.58 35.684H2859.23C2858.48 35.922 2857.82 36.3469 2857.29 36.9176C2856.76 37.4883 2856.38 38.1857 2856.2 38.9425L2779.03 360.098C2778.84 360.874 2778.86 361.688 2779.08 362.455C2779.3 363.223 2779.73 363.918 2780.31 364.469C2780.89 364.993 2781.6 365.356 2782.37 365.524C2783.14 365.691 2783.93 365.656 2784.68 365.423L3106.33 266.637C3107.11 266.432 3107.83 266.01 3108.39 265.421C3108.96 264.831 3109.34 264.096 3109.51 263.299V263.537ZM3176.33 252.649C3177.55 252.659 3178.76 252.471 3179.91 252.093L3501.48 153.306C3503.47 152.68 3505.26 151.532 3506.66 149.98C3508.06 148.429 3509.02 146.531 3509.43 144.484C3509.91 142.424 3509.82 140.274 3509.18 138.26C3508.53 136.246 3507.36 134.443 3505.77 133.04L3360.5 0H3349.45L3500.6 138.047C3501.2 138.573 3501.64 139.25 3501.87 140.006C3502.11 140.762 3502.14 141.568 3501.95 142.339C3501.78 143.099 3501.41 143.8 3500.88 144.372C3500.35 144.943 3499.68 145.366 3498.93 145.597L3177.29 244.384C3176.54 244.625 3175.74 244.663 3174.97 244.496C3174.2 244.328 3173.49 243.961 3172.91 243.43C3172.34 242.891 3171.92 242.209 3171.7 241.456C3171.47 240.702 3171.45 239.902 3171.64 239.138L3228.92 0H3220.97L3164.16 237.39C3163.64 239.428 3163.68 241.57 3164.29 243.586C3164.89 245.601 3166.03 247.416 3167.58 248.834C3168.71 250.006 3170.07 250.929 3171.58 251.545C3173.09 252.161 3174.71 252.456 3176.33 252.411V252.649ZM1577.75 1643.13C1578.26 1644.79 1578.44 1646.53 1578.28 1648.25C1578.12 1649.98 1577.62 1651.65 1576.8 1653.18C1575.99 1654.71 1574.88 1656.06 1573.54 1657.16C1572.2 1658.26 1570.65 1659.08 1568.99 1659.58L1519.99 1674.68L1564.86 1820.6C1565.38 1822.25 1565.58 1823.98 1565.43 1825.71C1565.28 1827.43 1564.78 1829.11 1563.97 1830.64C1563.17 1832.17 1562.06 1833.53 1560.73 1834.63C1559.39 1835.73 1557.85 1836.55 1556.19 1837.05L1415.53 1880.2C1414.3 1880.61 1413.01 1880.82 1411.71 1880.84C1408.9 1880.84 1406.15 1879.94 1403.89 1878.27C1401.63 1876.59 1399.96 1874.23 1399.14 1871.54L1354.19 1725.63L1301.05 1741.92C1297.72 1742.94 1294.11 1742.6 1291.03 1740.98C1287.94 1739.36 1285.63 1736.58 1284.58 1733.26L1241.22 1592.35C1240.71 1590.7 1240.52 1588.97 1240.68 1587.24C1240.84 1585.52 1241.33 1583.85 1242.14 1582.32C1242.94 1580.79 1244.04 1579.44 1245.38 1578.34C1246.71 1577.23 1248.24 1576.4 1249.9 1575.9L1517.92 1493.56C1521.25 1492.54 1524.86 1492.88 1527.94 1494.5C1531.03 1496.13 1533.34 1498.9 1534.39 1502.22L1577.75 1643.13ZM1570.59 1645.36L1527.23 1504.45C1526.77 1503.02 1525.77 1501.82 1524.44 1501.11C1523.75 1500.82 1523.01 1500.66 1522.26 1500.66C1521.5 1500.66 1520.76 1500.82 1520.07 1501.11L1252.12 1583.45C1251.41 1583.66 1250.74 1584.01 1250.16 1584.48C1249.58 1584.95 1249.1 1585.53 1248.75 1586.19C1248.4 1586.85 1248.19 1587.58 1248.13 1588.32C1248.07 1589.06 1248.15 1589.81 1248.39 1590.52L1291.74 1731.43C1292.2 1732.86 1293.2 1734.06 1294.53 1734.77C1295.21 1735.06 1295.94 1735.21 1296.68 1735.21C1297.41 1735.21 1298.14 1735.06 1298.82 1734.77L1359.13 1716.25L1406.22 1869.32C1406.68 1870.75 1407.68 1871.94 1409.01 1872.65C1409.67 1873.01 1410.4 1873.23 1411.15 1873.3C1411.91 1873.37 1412.67 1873.29 1413.38 1873.05L1553.96 1829.9C1555.39 1829.44 1556.59 1828.44 1557.3 1827.12C1558.01 1825.77 1558.18 1824.21 1557.78 1822.74L1510.6 1669.76L1566.85 1652.43C1567.56 1652.22 1568.23 1651.86 1568.8 1651.38C1569.38 1650.91 1569.85 1650.32 1570.19 1649.65C1570.58 1648.97 1570.82 1648.21 1570.89 1647.43C1570.95 1646.65 1570.85 1645.86 1570.59 1645.12V1645.36ZM1774.41 930.089L1725.4 945.189L1770.27 1091.1C1771.29 1094.43 1770.95 1098.03 1769.33 1101.11C1767.7 1104.2 1764.92 1106.51 1761.6 1107.55L1620.94 1150.71C1619.71 1151.11 1618.42 1151.33 1617.12 1151.35C1614.3 1151.34 1611.55 1150.43 1609.28 1148.76C1607 1147.09 1605.32 1144.74 1604.48 1142.05L1559.61 996.132L1506.15 1012.5C1502.81 1013.52 1499.21 1013.19 1496.12 1011.56C1493.04 1009.94 1490.72 1007.16 1489.68 1003.84L1446.32 862.933C1445.8 861.284 1445.62 859.549 1445.77 857.829C1445.93 856.108 1446.43 854.435 1447.23 852.906C1448.04 851.378 1449.14 850.023 1450.47 848.921C1451.8 847.818 1453.34 846.989 1454.99 846.482L1723.01 764.146C1724.66 763.629 1726.4 763.447 1728.12 763.611C1729.84 763.775 1731.52 764.281 1733.04 765.1C1734.59 765.919 1735.95 767.047 1737.04 768.414C1738.14 769.781 1738.94 771.358 1739.4 773.047L1783.16 913.955C1784.03 917.221 1783.61 920.697 1781.98 923.658C1780.35 926.62 1777.63 928.838 1774.41 929.85V930.089ZM1775.6 920.234C1775.96 919.57 1776.18 918.84 1776.25 918.089C1776.32 917.338 1776.23 916.58 1776 915.863L1732.64 774.955C1732.18 773.524 1731.18 772.327 1729.86 771.617C1729.19 771.257 1728.46 771.037 1727.71 770.969C1726.96 770.9 1726.2 770.986 1725.48 771.219L1457.54 853.634C1456.82 853.846 1456.15 854.202 1455.58 854.68C1455 855.159 1454.53 855.749 1454.2 856.416C1453.9 857.093 1453.75 857.823 1453.75 858.562C1453.75 859.3 1453.9 860.03 1454.2 860.707L1497.16 1001.38C1497.62 1002.81 1498.61 1004 1499.94 1004.71C1500.59 1005.07 1501.31 1005.29 1502.05 1005.36C1502.79 1005.43 1503.53 1005.34 1504.24 1005.11L1564.54 986.595L1611.64 1139.66C1612.1 1141.09 1613.09 1142.29 1614.42 1143C1615.11 1143.3 1615.86 1143.45 1616.61 1143.45C1617.36 1143.45 1618.1 1143.3 1618.8 1143L1759.37 1099.85C1760.8 1099.39 1762 1098.39 1762.71 1097.06C1763.01 1096.37 1763.16 1095.63 1763.16 1094.88C1763.16 1094.13 1763.01 1093.38 1762.71 1092.69L1715.61 939.705L1771.86 922.379C1773.33 922.206 1774.67 921.465 1775.6 920.313V920.234ZM1724.76 1365.29L1403.12 1464.16C1401.98 1464.5 1400.81 1464.68 1399.62 1464.71C1396.66 1464.62 1393.84 1463.46 1391.66 1461.45C1390.13 1460 1389.01 1458.17 1388.41 1456.15C1387.81 1454.13 1387.75 1451.98 1388.24 1449.93L1465.01 1128.54C1465.45 1126.53 1466.42 1124.67 1467.82 1123.16C1469.22 1121.65 1471 1120.54 1472.97 1119.95C1474.95 1119.32 1477.05 1119.23 1479.08 1119.67C1481.11 1120.12 1482.98 1121.09 1484.51 1122.5L1729.14 1345.02C1730.69 1346.44 1731.84 1348.24 1732.47 1350.25C1733.1 1352.25 1733.19 1354.38 1732.73 1356.43C1732.27 1358.48 1731.28 1360.37 1729.85 1361.91C1728.42 1363.45 1726.61 1364.59 1724.6 1365.21L1724.76 1365.29ZM1725.56 1354.88C1725.76 1354.11 1725.74 1353.3 1725.5 1352.54C1725.27 1351.78 1724.82 1351.1 1724.21 1350.59L1479.65 1128.06C1478.86 1127.3 1477.81 1126.87 1476.71 1126.87C1476.24 1126.76 1475.75 1126.76 1475.28 1126.87C1474.53 1127.07 1473.85 1127.47 1473.32 1128.03C1472.79 1128.59 1472.42 1129.29 1472.25 1130.05L1395.32 1451.68C1395.13 1452.44 1395.15 1453.24 1395.37 1454C1395.59 1454.76 1396.02 1455.44 1396.6 1455.97C1397.16 1456.53 1397.87 1456.92 1398.64 1457.1C1399.41 1457.29 1400.22 1457.25 1400.97 1457L1722.54 1358.14C1723.29 1357.93 1723.98 1357.51 1724.51 1356.94C1725.05 1356.36 1725.41 1355.65 1725.56 1354.88V1354.88ZM3147.06 1.82794C3147.28 2.53759 3147.36 3.28386 3147.29 4.02398C3147.22 4.76411 3147.01 5.48347 3146.66 6.14072C3146.31 6.79797 3145.84 7.38016 3145.26 7.85388C3144.69 8.32759 3144.03 8.68352 3143.32 8.90115L3002.66 52.1352C3001.99 52.4282 3001.25 52.5794 3000.52 52.5794C2999.78 52.5794 2999.05 52.4282 2998.37 52.1352C2997.04 51.4248 2996.04 50.2282 2995.58 48.7973L2980.79 1.11264H2972.83L2988.74 51.3404C2989.58 54.0192 2991.25 56.3625 2993.51 58.0334C2995.77 59.7042 2998.5 60.6164 3001.31 60.6389C3002.63 60.6491 3003.95 60.4616 3005.21 60.0826L3145.78 16.8486C3149.04 15.869 3151.79 13.6642 3153.45 10.6991C3155.12 7.73403 3155.56 4.24013 3154.69 0.953714H3146.74L3147.06 1.82794ZM3569.18 131.689C3570.39 131.687 3571.59 131.527 3572.76 131.212L3593.6 124.775V116.827L3570.53 123.901C3569.78 124.131 3568.97 124.157 3568.2 123.976C3567.43 123.794 3566.73 123.412 3566.16 122.867C3565.58 122.328 3565.16 121.647 3564.94 120.893C3564.72 120.139 3564.7 119.34 3564.88 118.576L3593.2 0.158922H3585.25L3557.25 116.827C3556.76 118.874 3556.83 121.012 3557.44 123.024C3558.06 125.035 3559.2 126.846 3560.75 128.272C3561.85 129.375 3563.17 130.246 3564.62 130.833C3566.06 131.42 3567.62 131.711 3569.18 131.689V131.689ZM2117.61 1244.33L1795.97 1343.12C1794.8 1343.46 1793.6 1343.64 1792.39 1343.67C1790.58 1343.65 1788.81 1343.22 1787.2 1342.42C1785.58 1341.62 1784.17 1340.47 1783.06 1339.05C1781.95 1337.63 1781.18 1335.98 1780.8 1334.22C1780.41 1332.46 1780.43 1330.64 1780.85 1328.89L1857.86 1007.34C1858.3 1005.32 1859.27 1003.46 1860.67 1001.93C1862.07 1000.41 1863.84 999.288 1865.82 998.675C1867.79 998.046 1869.9 997.95 1871.93 998.397C1873.95 998.843 1875.82 999.817 1877.35 1001.22L2121.98 1223.75C2123.55 1225.16 2124.7 1226.97 2125.33 1228.98C2125.96 1230.99 2126.04 1233.14 2125.56 1235.19C2125.22 1237.34 2124.3 1239.35 2122.9 1241.02C2121.5 1242.69 2119.67 1243.94 2117.61 1244.65V1244.33ZM2118.4 1233.84C2118.58 1233.07 2118.55 1232.26 2118.31 1231.51C2118.07 1230.76 2117.64 1230.08 2117.05 1229.55L1872.5 1007.02C1871.68 1006.25 1870.6 1005.82 1869.48 1005.83C1869.03 1005.77 1868.57 1005.77 1868.12 1005.83C1867.38 1006.04 1866.71 1006.45 1866.18 1007.01C1865.65 1007.57 1865.28 1008.26 1865.1 1009.01L1788.09 1330.64C1787.91 1331.41 1787.95 1332.21 1788.18 1332.97C1788.42 1333.72 1788.86 1334.4 1789.44 1334.93C1790 1335.5 1790.71 1335.9 1791.48 1336.08C1792.26 1336.26 1793.07 1336.22 1793.82 1335.96L2115.38 1237.18C2116.16 1237.02 2116.88 1236.66 2117.47 1236.13C2118.06 1235.6 2118.49 1234.92 2118.72 1234.16L2118.4 1233.84ZM1200.57 841.236L1277.58 519.603C1278.02 517.594 1278.99 515.738 1280.39 514.228C1281.79 512.719 1283.57 511.611 1285.54 511.02C1287.51 510.391 1289.62 510.295 1291.65 510.742C1293.67 511.189 1295.55 512.162 1297.07 513.563L1541.71 736.092C1543.26 737.513 1544.41 739.321 1545.04 741.331C1545.67 743.342 1545.76 745.482 1545.29 747.536C1544.86 749.579 1543.9 751.473 1542.5 753.023C1541.11 754.573 1539.32 755.724 1537.33 756.358L1215.77 855.462C1214.6 855.777 1213.4 855.937 1212.19 855.939C1209.23 855.907 1206.39 854.774 1204.23 852.76C1202.64 851.345 1201.46 849.528 1200.82 847.5C1200.17 845.472 1200.09 843.308 1200.57 841.236V841.236ZM1209.16 847.276C1209.74 847.821 1210.44 848.203 1211.21 848.385C1211.98 848.566 1212.78 848.54 1213.54 848.309L1535.1 749.443C1535.86 749.21 1536.54 748.788 1537.08 748.218C1537.62 747.647 1538.01 746.947 1538.21 746.185C1538.37 745.414 1538.33 744.614 1538.09 743.863C1537.85 743.112 1537.43 742.434 1536.85 741.893L1292.22 519.365C1291.43 518.607 1290.37 518.18 1289.28 518.173C1288.81 518.069 1288.32 518.069 1287.85 518.173C1287.1 518.374 1286.42 518.778 1285.89 519.338C1285.35 519.899 1284.99 520.596 1284.82 521.352L1207.89 842.985C1207.7 843.748 1207.71 844.55 1207.94 845.306C1208.16 846.061 1208.59 846.742 1209.16 847.276V847.276ZM1802.25 2.62267C1804.4 4.66519 1807.24 5.82787 1810.21 5.88109C1811.39 5.85758 1812.57 5.67037 1813.71 5.32477L1830.1 0.317905H1800.5C1801.02 1.13377 1801.6 1.90474 1802.25 2.62267V2.62267ZM1660.72 117.066L1928.74 34.7303C1930.39 34.2154 1932.12 34.0314 1933.84 34.1888C1935.55 34.3462 1937.22 34.842 1938.75 35.6475C1940.27 36.453 1941.62 37.5523 1942.72 38.8818C1943.81 40.2112 1944.63 41.7445 1945.13 43.393L1988.57 184.381C1989.08 186.029 1989.27 187.764 1989.1 189.483C1988.94 191.202 1988.44 192.871 1987.62 194.395C1986.81 195.918 1985.7 197.264 1984.36 198.356C1983.02 199.447 1981.48 200.262 1979.82 200.752L1930.81 215.852L1975.52 361.767C1976.04 363.416 1976.22 365.151 1976.06 366.871C1975.89 368.59 1975.39 370.26 1974.57 371.781C1973.75 373.337 1972.62 374.711 1971.25 375.817C1969.89 376.924 1968.31 377.741 1966.61 378.218L1826.36 421.214C1825.12 421.618 1823.84 421.833 1822.54 421.85C1820.37 421.84 1818.24 421.294 1816.33 420.26C1814.77 419.442 1813.4 418.315 1812.29 416.949C1811.18 415.583 1810.37 414.005 1809.89 412.313L1765.02 266.398L1711.88 282.77C1708.54 283.778 1704.94 283.436 1701.85 281.816C1700.3 280.983 1698.94 279.852 1697.83 278.487C1696.73 277.123 1695.9 275.553 1695.41 273.869L1652.05 132.961C1651.19 129.706 1651.61 126.248 1653.23 123.293C1654.84 120.338 1657.52 118.111 1660.72 117.066V117.066ZM1659.61 127C1659.31 127.677 1659.16 128.408 1659.16 129.146C1659.16 129.884 1659.31 130.614 1659.61 131.292L1702.97 272.2C1703.18 272.914 1703.54 273.578 1704.02 274.151C1704.5 274.725 1705.09 275.196 1705.75 275.538C1707.07 276.243 1708.61 276.414 1710.05 276.015L1770.35 257.497L1817.45 410.485C1817.91 411.916 1818.9 413.113 1820.23 413.823C1820.92 414.118 1821.67 414.27 1822.42 414.27C1823.17 414.27 1823.91 414.118 1824.61 413.823L1965.18 370.668C1966.61 370.209 1967.81 369.211 1968.52 367.887C1968.82 367.196 1968.97 366.453 1968.97 365.701C1968.97 364.95 1968.82 364.207 1968.52 363.516L1921.42 210.528L1977.67 193.282C1979.11 192.825 1980.32 191.816 1981.02 190.476C1981.72 189.136 1981.86 187.573 1981.41 186.129L1938.05 45.2209C1937.6 43.7796 1936.58 42.5778 1935.24 41.8779C1933.9 41.178 1932.34 41.037 1930.89 41.4856L1662.95 123.821C1662.18 124.094 1661.48 124.535 1660.9 125.112C1660.32 125.69 1659.88 126.389 1659.61 127.159V127ZM1593.66 720.515L1670.67 398.882C1671.12 396.879 1672.09 395.031 1673.49 393.524C1674.89 392.017 1676.66 390.905 1678.62 390.299C1680.6 389.67 1682.71 389.574 1684.73 390.02C1686.76 390.467 1688.63 391.44 1690.16 392.842L1934.79 615.37C1936.36 616.782 1937.52 618.589 1938.15 620.602C1938.78 622.616 1938.86 624.761 1938.37 626.814C1937.93 628.843 1936.97 630.72 1935.57 632.256C1934.17 633.791 1932.39 634.93 1930.41 635.557L1608.77 734.423C1607.64 734.768 1606.46 734.955 1605.27 734.979C1602.3 734.926 1599.47 733.763 1597.32 731.721C1595.79 730.325 1594.65 728.56 1594.01 726.597C1593.37 724.634 1593.25 722.539 1593.66 720.515V720.515ZM1602.25 726.555C1602.81 727.114 1603.52 727.506 1604.29 727.689C1605.06 727.871 1605.87 727.836 1606.62 727.588L1927.79 628.801C1928.55 628.571 1929.23 628.139 1929.76 627.551C1930.3 626.963 1930.66 626.241 1930.81 625.463C1931.02 624.693 1931 623.882 1930.76 623.122C1930.52 622.362 1930.07 621.686 1929.46 621.172L1684.91 398.643C1684.11 397.885 1683.06 397.458 1681.96 397.451C1681.49 397.386 1681.01 397.386 1680.53 397.451C1679.79 397.668 1679.12 398.076 1678.59 398.635C1678.06 399.193 1677.69 399.881 1677.51 400.63L1600.58 722.263C1600.4 723.041 1600.44 723.852 1600.7 724.608C1600.95 725.365 1601.4 726.038 1602.01 726.555H1602.25ZM1595.96 305.341C1596.48 306.995 1596.66 308.734 1596.5 310.459C1596.34 312.183 1595.83 313.859 1595.02 315.388C1594.21 316.918 1593.1 318.271 1591.76 319.371C1590.42 320.47 1588.87 321.292 1587.21 321.792L1538.21 336.892L1583.16 482.807C1584.16 486.141 1583.82 489.737 1582.2 492.821C1581.37 494.366 1580.23 495.731 1578.87 496.836C1577.5 497.941 1575.93 498.764 1574.25 499.258L1433.67 542.413C1432.41 542.811 1431.1 543.025 1429.77 543.048C1426.96 543.038 1424.22 542.131 1421.96 540.458C1419.7 538.785 1418.03 536.435 1417.2 533.75L1372.25 387.835L1319.11 403.73C1317.46 404.247 1315.72 404.428 1314 404.265C1312.28 404.101 1310.61 403.595 1309.09 402.776C1307.53 401.958 1306.15 400.831 1305.05 399.465C1303.94 398.098 1303.12 396.521 1302.64 394.829L1259.52 254.318C1259.01 252.669 1258.82 250.934 1258.98 249.214C1259.13 247.493 1259.63 245.821 1260.44 244.292C1261.24 242.763 1262.34 241.408 1263.67 240.306C1265.01 239.203 1266.54 238.374 1268.19 237.867L1536.22 155.531C1539.55 154.511 1543.15 154.849 1546.24 156.472C1549.32 158.095 1551.64 160.871 1552.69 164.194L1595.96 305.341ZM1588.8 307.566L1545.45 166.658C1544.98 165.227 1543.99 164.03 1542.66 163.32C1542 162.961 1541.27 162.74 1540.51 162.672C1539.76 162.604 1539 162.689 1538.29 162.922L1270.34 245.258C1269.63 245.47 1268.96 245.826 1268.38 246.304C1267.81 246.782 1267.34 247.373 1267 248.039C1266.64 248.689 1266.42 249.406 1266.36 250.144C1266.29 250.882 1266.37 251.627 1266.6 252.331L1309.96 393.239C1310.42 394.67 1311.42 395.867 1312.75 396.577C1313.44 396.872 1314.18 397.024 1314.93 397.024C1315.69 397.024 1316.43 396.872 1317.12 396.577L1377.35 378.06L1424.52 531.127C1424.95 532.553 1425.92 533.752 1427.23 534.465C1427.89 534.824 1428.62 535.045 1429.37 535.113C1430.13 535.181 1430.88 535.096 1431.6 534.863L1572.18 491.708C1572.9 491.505 1573.57 491.152 1574.14 490.673C1574.72 490.194 1575.19 489.599 1575.52 488.926C1576.23 487.583 1576.4 486.02 1576 484.555L1528.82 331.567L1585.06 314.242C1586.44 313.753 1587.57 312.752 1588.22 311.449C1588.88 310.145 1589 308.64 1588.56 307.248L1588.8 307.566ZM3363.77 861.105C3364.98 861.114 3366.19 860.926 3367.35 860.548L3593.6 791.088V783.14L3365.12 853.396C3364.36 853.627 3363.56 853.653 3362.79 853.471C3362.02 853.289 3361.32 852.907 3360.74 852.363C3360.17 851.823 3359.75 851.142 3359.53 850.388C3359.3 849.634 3359.28 848.835 3359.47 848.071L3436.48 526.438C3436.65 525.678 3437.03 524.977 3437.56 524.405C3438.09 523.833 3438.76 523.411 3439.5 523.18H3440.86C3441.95 523.179 3443.01 523.606 3443.8 524.372L3593.6 660.75V650.577L3448.89 518.729C3447.35 517.328 3445.46 516.35 3443.43 515.891C3441.39 515.431 3439.27 515.505 3437.28 516.107C3435.32 516.754 3433.56 517.89 3432.17 519.406C3430.78 520.922 3429.8 522.768 3429.32 524.769L3351.83 846.402C3351.35 848.448 3351.42 850.587 3352.03 852.598C3352.65 854.61 3353.79 856.421 3355.33 857.846C3356.45 858.921 3357.78 859.763 3359.22 860.323C3360.67 860.882 3362.22 861.148 3363.77 861.105V861.105ZM1986.26 599.793L2063.03 278.16C2063.48 276.143 2064.44 274.278 2065.84 272.756C2067.24 271.235 2069.02 270.11 2070.99 269.498C2072.97 268.869 2075.07 268.773 2077.1 269.219C2079.13 269.666 2081 270.639 2082.52 272.041L2327.16 494.569C2328.72 495.986 2329.88 497.793 2330.51 499.805C2331.13 501.817 2331.22 503.96 2330.74 506.013C2330.31 508.053 2329.34 509.943 2327.95 511.492C2326.55 513.041 2324.77 514.194 2322.78 514.835L2001.14 613.622C1999.98 614 1998.78 614.187 1997.56 614.178C1994.59 614.125 1991.75 612.962 1989.6 610.919C1988.13 609.512 1987.05 607.747 1986.46 605.797C1985.88 603.847 1985.81 601.778 1986.26 599.793V599.793ZM1994.86 605.833C1995.42 606.392 1996.12 606.785 1996.9 606.967C1997.67 607.15 1998.48 607.115 1999.23 606.866L2320.79 508.08C2321.55 507.85 2322.24 507.417 2322.77 506.829C2323.3 506.241 2323.66 505.52 2323.82 504.742C2324.02 503.972 2324 503.16 2323.76 502.4C2323.52 501.641 2323.07 500.965 2322.46 500.45L2077.91 277.922C2077.09 277.152 2076.01 276.725 2074.89 276.73C2074.44 276.671 2073.98 276.671 2073.53 276.73C2072.8 276.947 2072.13 277.355 2071.6 277.913C2071.06 278.471 2070.69 279.16 2070.51 279.909L1993.5 601.542C1993.33 602.312 1993.36 603.116 1993.6 603.871C1993.83 604.625 1994.27 605.302 1994.86 605.833V605.833ZM3296.14 882.165L2974.5 981.27C2973.35 981.648 2972.14 981.836 2970.92 981.826C2969.12 981.816 2967.35 981.4 2965.74 980.609C2964.12 979.818 2962.71 978.673 2961.6 977.259C2960.49 975.845 2959.71 974.2 2959.33 972.444C2958.95 970.689 2958.97 968.87 2959.39 967.124L3036.32 645.491C3036.79 643.49 3037.78 641.644 3039.17 640.127C3040.56 638.611 3042.32 637.476 3044.27 636.828C3046.27 636.211 3048.39 636.128 3050.43 636.589C3052.47 637.049 3054.35 638.036 3055.89 639.451L3300.44 861.979C3302.02 863.382 3303.2 865.185 3303.84 867.199C3304.49 869.213 3304.58 871.363 3304.1 873.423C3303.66 875.449 3302.69 877.322 3301.29 878.856C3299.9 880.391 3298.12 881.532 3296.14 882.165V882.165ZM3297.02 871.754C3297.2 870.984 3297.18 870.177 3296.94 869.421C3296.7 868.665 3296.26 867.988 3295.67 867.463L3051.03 644.935C3050.23 644.205 3049.18 643.807 3048.09 643.822H3046.74C3045.99 644.053 3045.32 644.475 3044.79 645.047C3044.26 645.619 3043.89 646.32 3043.72 647.08L2966.7 968.713C2966.5 969.478 2966.51 970.282 2966.74 971.042C2966.96 971.801 2967.38 972.486 2967.96 973.024C2968.54 973.562 2969.25 973.933 2970.03 974.098C2970.8 974.262 2971.61 974.214 2972.35 973.958L3294 875.172C3294.71 874.943 3295.35 874.54 3295.86 873.998C3296.38 873.456 3296.75 872.794 3296.94 872.072L3297.02 871.754ZM3454.22 399.995C3454.7 401.687 3455.52 403.264 3456.62 404.63C3457.73 405.997 3459.11 407.123 3460.67 407.942C3462.19 408.761 3463.86 409.267 3465.58 409.43C3467.3 409.594 3469.04 409.412 3470.69 408.896L3523.83 392.603L3568.78 538.518C3569.26 540.212 3570.07 541.792 3571.18 543.159C3572.29 544.526 3573.66 545.651 3575.23 546.466C3577.1 547.499 3579.21 548.046 3581.35 548.055C3582.67 548.039 3583.99 547.824 3585.25 547.419L3593.68 544.876V536.929L3583.02 540.187C3582.32 540.419 3581.57 540.503 3580.83 540.435C3580.09 540.367 3579.38 540.147 3578.73 539.79C3578.06 539.452 3577.47 538.982 3576.99 538.408C3576.51 537.834 3576.15 537.169 3575.94 536.452L3528.76 383.384L3468.54 401.902C3467.1 402.351 3465.53 402.21 3464.19 401.51C3462.85 400.81 3461.84 399.608 3461.38 398.167L3418.02 257.259C3417.8 256.549 3417.72 255.803 3417.79 255.062C3417.86 254.322 3418.07 253.603 3418.42 252.946C3418.77 252.288 3419.24 251.706 3419.82 251.233C3420.39 250.759 3421.05 250.403 3421.76 250.185L3593.68 197.335V189.387L3419.61 242.874C3417.93 243.342 3416.35 244.147 3414.99 245.239C3413.62 246.332 3412.49 247.69 3411.66 249.232C3410.84 250.767 3410.33 252.449 3410.17 254.182C3410 255.915 3410.19 257.663 3410.7 259.325L3454.22 399.995ZM2177.12 1220.01C2175.55 1218.58 2174.41 1216.75 2173.81 1214.72C2173.21 1212.69 2173.17 1210.54 2173.7 1208.49L2250.63 886.934C2251.09 884.926 2252.07 883.073 2253.46 881.555C2254.85 880.037 2256.62 878.905 2258.58 878.271C2260.58 877.638 2262.7 877.547 2264.74 878.008C2266.79 878.469 2268.67 879.465 2270.2 880.894L2514.83 1103.42C2516.38 1104.85 2517.52 1106.66 2518.15 1108.66C2518.78 1110.67 2518.87 1112.81 2518.41 1114.86C2517.95 1116.91 2516.96 1118.81 2515.53 1120.36C2514.11 1121.91 2512.3 1123.06 2510.29 1123.69L2188.65 1222.47C2187.5 1222.85 2186.29 1223.04 2185.07 1223.03C2182.14 1223.04 2179.3 1221.97 2177.12 1220.01V1220.01ZM2182.29 1214.53C2182.85 1215.09 2183.56 1215.48 2184.33 1215.66C2185.1 1215.84 2185.91 1215.81 2186.66 1215.56L2508.54 1116.77C2509.36 1116.56 2510.11 1116.13 2510.69 1115.52C2511.28 1114.91 2511.68 1114.14 2511.85 1113.32C2512.02 1112.49 2511.96 1111.63 2511.67 1110.84C2511.39 1110.05 2510.88 1109.35 2510.22 1108.83L2265.66 886.298C2264.84 885.528 2263.76 885.101 2262.64 885.106C2262.19 885.047 2261.74 885.047 2261.29 885.106C2260.54 885.33 2259.86 885.75 2259.33 886.323C2258.8 886.896 2258.43 887.601 2258.26 888.364L2181.25 1209.92C2180.94 1210.71 2180.88 1211.57 2181.08 1212.4C2181.28 1213.22 2181.73 1213.97 2182.37 1214.53H2182.29ZM2569.96 1099.29C2568.41 1097.87 2567.27 1096.06 2566.66 1094.04C2566.06 1092.02 2566.02 1089.88 2566.54 1087.85L2643.79 766.212C2644.27 764.211 2645.25 762.365 2646.64 760.849C2648.03 759.333 2649.79 758.197 2651.74 757.55C2653.74 756.916 2655.87 756.825 2657.91 757.286C2659.95 757.747 2661.83 758.743 2663.36 760.172L2907.99 982.701C2909.54 984.132 2910.68 985.945 2911.3 987.957C2911.93 989.97 2912.01 992.11 2911.54 994.164C2911.07 996.218 2910.07 998.112 2908.64 999.657C2907.21 1001.2 2905.39 1002.34 2903.38 1002.97L2581.82 1101.75C2580.66 1102.13 2579.45 1102.32 2578.24 1102.31C2575.19 1102.4 2572.23 1101.32 2569.96 1099.29V1099.29ZM2575.05 1093.89C2575.64 1094.41 2576.35 1094.77 2577.11 1094.94C2577.88 1095.11 2578.68 1095.07 2579.43 1094.84L2901.07 996.052C2901.83 995.822 2902.51 995.39 2903.05 994.802C2903.58 994.214 2903.94 993.492 2904.09 992.714C2904.27 991.956 2904.24 991.163 2904 990.421C2903.77 989.679 2903.33 989.015 2902.74 988.502L2658.11 765.974C2657.31 765.229 2656.26 764.804 2655.17 764.782C2654.72 764.723 2654.26 764.723 2653.81 764.782C2653.07 765.02 2652.4 765.445 2651.87 766.015C2651.34 766.586 2650.97 767.284 2650.79 768.04L2573.78 1089.59C2573.6 1090.36 2573.63 1091.16 2573.85 1091.91C2574.07 1092.66 2574.49 1093.34 2575.05 1093.89V1093.89Z" fill="#DD6B51"/>
</svg>
