<svg width="230" height="46" viewBox="0 0 230 46" fill="none" xmlns="http://www.w3.org/2000/svg">
<g clip-path="url(#clip0_15_1072)">
<path d="M229.756 42.7686L215.832 23.9643C215.51 23.5332 215.51 22.9397 215.832 22.5086L229.752 3.76456C230.35 2.96251 229.779 1.81738 228.786 1.81738H190.757C190.09 1.81738 189.548 2.36444 189.548 3.03669V10.7883C185.385 4.43681 178.117 0.333804 169.924 0.681516C161.267 1.04314 153.833 6.47208 150.452 14.0568C146.961 5.99456 138.98 0.352348 129.692 0.352348C120.405 0.352348 113.146 5.49385 109.434 12.9813C106.932 6.43963 100.634 1.82201 93.288 1.82201H74.0968C73.4298 1.82201 72.887 2.36908 72.887 3.04132V32.263L54.349 0.598065C53.8798 -0.199355 52.7344 -0.199355 52.2698 0.598065L30.0564 38.5404V23.2967H37.1036C37.7706 23.2967 38.3134 22.7496 38.3134 22.0774V3.03669C38.3134 2.36444 37.7706 1.81738 37.1036 1.81738H1.2098C0.5428 1.81738 0 2.36444 0 3.03669V22.082C0 22.7543 0.5428 23.3013 1.2098 23.3013H8.8044V43.5011C8.8044 44.1734 9.3472 44.7204 10.0142 44.7204H110.244C111.237 44.7204 111.803 43.5846 111.214 42.7779L103.969 32.9075C105.446 31.7531 106.715 30.3715 107.741 28.8184C110.234 38.6934 119.112 46 129.688 46C138.957 46 146.919 40.3856 150.425 32.3511C153.907 40.2465 161.75 45.7543 170.876 45.7543C178.678 45.7543 185.546 41.7255 189.543 35.6196V43.4965C189.543 44.1687 190.086 44.7158 190.753 44.7158H228.786C229.779 44.7158 230.35 43.5753 229.752 42.7686H229.756ZM170.881 23.1762L189.548 19.7176V26.6348L170.881 23.1762Z" fill="#EC6348"/>
</g>
<defs>
<clipPath id="clip0_15_1072">
<rect width="230" height="46" fill="white"/>
</clipPath>
</defs>
</svg>
